<svg aria-hidden="true" style="position:absolute;width:0;height:0" xmlns="http://www.w3.org/2000/svg" overflow="hidden"><defs><symbol id="pin-icon" viewBox="0 0 14 18" fill="currentColor"><path d="M7 .4C3.34.4.4 3.562.4 7.4c0 2.107 1.597 4.498 3.123 6.49a41.226 41.226 0 003.051 3.532l.426.432.426-.432s1.524-1.539 3.05-3.531C12.004 11.898 13.6 9.507 13.6 7.4c0-3.84-2.94-7-6.6-7zm0 1.2c2.968 0 5.4 2.57 5.4 5.8 0 1.428-1.403 3.837-2.877 5.76C8.263 14.806 7.34 15.734 7 16.084c-.339-.35-1.263-1.278-2.523-2.924C3.003 11.237 1.6 8.828 1.6 7.4c0-3.23 2.432-5.8 5.4-5.8z"/><path d="M7 6c-.76 0-1.35.655-1.35 1.4 0 .746.59 1.4 1.35 1.4.76 0 1.35-.654 1.35-1.4C8.35 6.655 7.76 6 7 6zm0 1.2c.068 0 .15.063.15.2 0 .138-.082.2-.15.2-.068 0-.15-.062-.15-.2 0-.137.082-.2.15-.2z"/></symbol><symbol id="phone-icon" viewBox="0 0 16 16" fill="currentColor"><path d="M15.543 1.663l-.027-.017L12.175 0 8.569 4.808l1.659 2.213a3.416 3.416 0 01-3.207 3.207l-2.213-1.66L0 12.176l1.632 3.313.014.028.017.027a.968.968 0 00.825.457h.862A12.65 12.65 0 0016 3.35v-.862a.968.968 0 00-.457-.825zm-.778 1.687c0 6.295-5.12 11.415-11.415 11.415h-.697L1.56 12.548l3.249-2.436 1.808 1.356h.206a4.651 4.651 0 004.645-4.646v-.205l-1.356-1.809 2.436-3.248 2.217 1.093v.697z"/></symbol><symbol id="mail-icon" viewBox="0 0 18 13" fill="currentColor"><path d="M13.104 3.61a.6.6 0 00-.448.099L9 6.268 5.344 3.709a.6.6 0 00-.836.146.6.6 0 00.148.836l4 2.801a.6.6 0 00.688 0l4-2.8a.6.6 0 00.148-.837.6.6 0 00-.388-.246z"/><path d="M2.6.4A2.21 2.21 0 00.4 2.6v8a2.21 2.21 0 002.2 2.2h12.8a2.21 2.21 0 002.2-2.2v-8A2.21 2.21 0 0015.4.4zm0 1.2h12.8c.56 0 1 .44 1 1v8c0 .56-.44 1-1 1H2.6c-.56 0-1-.44-1-1v-8c0-.56.44-1 1-1z"/></symbol><symbol id="rezilla-icon" viewBox="0 0 32 32" fill="currentColor"><path d="M15.6.1c-.117.055-3.621 2.825-7.787 6.159C-.282 12.735 0 12.494 0 12.971c0 .257.123.557.308.751.237.248.552.305 1.675.305h1.004l.001 8.573c.001 8.221.005 8.583.1 8.787a.985.985 0 00.544.528l.007.002c.176.073 1.3.083 10.28.083H24v-1.973h-4v-4.573c0-2.837-.02-4.645-.053-4.763-.063-.227-.327-.495-.599-.608-.297-.124-6.399-.124-6.696 0-.272.113-.536.381-.599.608-.033.117-.053 1.925-.053 4.763v4.573H5.013v-16L22 14l.029-2-18.143-.027 12.113-9.691 12.113 9.691-.212.036c-.407.071-.681.283-.832.643-.072.171-.083.617-.083 3.267v3.068h2.027v-4.96l.973-.001c.536-.001 1.081-.027 1.212-.056.615-.141.952-.759.719-1.316a1.299 1.299 0 00-.175-.303l.002.003C31.53 12.11 16.484.119 16.322.063a.894.894 0 00-.728.04l.005-.002zm2.373 25.927v4h-3.947v-8h3.947v4z"/></symbol><symbol id="user-circle-icon" viewBox="0 0 32 32" fill="currentColor"><path d="M14.96.352c-3.272.262-6.234 1.413-8.731 3.39a20.328 20.328 0 00-2.462 2.456l-.025.03C1.956 8.481.856 11.086.446 14.026c-.128.926-.128 3.019 0 3.946.41 2.941 1.51 5.546 3.296 7.798.558.704 1.782 1.928 2.486 2.486 2.253 1.786 4.858 2.886 7.798 3.296.926.128 3.019.128 3.946 0 2.938-.41 5.547-1.512 7.8-3.298a19.917 19.917 0 002.458-2.453l.025-.03c1.786-2.253 2.888-4.862 3.298-7.8.128-.926.128-3.019 0-3.946-.41-2.938-1.512-5.547-3.298-7.8a20.16 20.16 0 00-2.455-2.46l-.03-.025A15.705 15.705 0 0018.08.461l-.081-.009c-.618-.083-2.493-.146-3.04-.102zm2.96 2.659a15.85 15.85 0 012.646.674l-.111-.034c.746.274 2.038.915 2.638 1.31a13.832 13.832 0 013.878 3.842l.031.05c.426.646 1.064 1.92 1.347 2.691.25.682.518 1.749.643 2.563.139.901.139 2.885 0 3.786a12.81 12.81 0 01-1.262 3.967l.034-.073a12.336 12.336 0 01-2.398 3.377 12.55 12.55 0 01-3.504 2.564l-.073.033a12.54 12.54 0 01-3.823 1.222l-.071.009c-.901.139-2.885.139-3.786 0a13.432 13.432 0 01-6.166-2.633l.031.023c-.549-.414-1.941-1.806-2.355-2.355a14.49 14.49 0 01-1.932-3.471l-.034-.1a14.272 14.272 0 01-.631-2.475l-.012-.088c-.139-.901-.139-2.885 0-3.786a13.421 13.421 0 012.633-6.166l-.023.031c.384-.509 1.723-1.862 2.253-2.278a14.711 14.711 0 013.573-2.008l.101-.035c.946-.347 2.022-.581 3.389-.739.427-.05 2.456.019 2.987.099zm-2.747 3.146c-.858.134-1.547.4-2.266.874-1.71 1.126-2.694 3.211-2.461 5.213.141 1.218.549 2.162 1.349 3.122.147.178.261.33.25.336-.01.008-.21.13-.443.27-1.96 1.174-3.44 3.259-3.891 5.475-.11.55-.21 1.67-.168 1.926.074.432.346.788.717.976l.008.003c.253.133.813.133 1.066 0 .52-.272.694-.595.75-1.392.074-1.034.262-1.717.717-2.573.301-.568.6-.952 1.154-1.482.399-.4.864-.734 1.376-.985l.03-.013a5.849 5.849 0 012.647-.623c1.23 0 2.373.374 3.321 1.016l-.021-.013c.368.242 1.11.949 1.422 1.354.131.17.342.506.47.747.454.856.643 1.539.717 2.573.045.64.138.899.411 1.154a1.13 1.13 0 00.875.336H23.2c.65 0 1.155-.432 1.258-1.077.042-.259-.058-1.382-.17-1.926a8.562 8.562 0 00-3.853-5.454l-.037-.021a17.026 17.026 0 01-.539-.327l.096.057a1.93 1.93 0 01.251-.337l-.001.001c.8-.96 1.208-1.904 1.349-3.122.15-1.286-.226-2.712-1.005-3.811a5.619 5.619 0 00-5.407-2.271l.031-.004zm1.809 2.64a3.168 3.168 0 011.906 1.909c.179.518.179 1.43 0 1.949a3.196 3.196 0 01-1.9 1.91l-.022.007c-.509.176-1.427.174-1.941-.003a3.196 3.196 0 01-1.91-1.9l-.007-.022c-.174-.506-.174-1.427 0-1.933a3.157 3.157 0 012.257-2.018l.021-.004c.357-.078 1.242-.019 1.595.106z"/></symbol><symbol id="home-icon" viewBox="0 0 42 44" fill="currentColor"><path d="M40.077 18.114L22.347 1.802a3.036 3.036 0 00-4.203.087L1.837 18.197 1 19.033v24.041h15.714v-15h8.572v15H41v-24.11zM20.29 3.857c.025 0 .01.006-.001.016-.011-.01-.024-.016.001-.016zm17.854 36.36h-10V28.074a2.857 2.857 0 00-2.857-2.857h-8.572a2.857 2.857 0 00-2.857 2.857v12.143h-10v-20L20.29 3.909l.002-.003 17.852 16.31z"/><path d="M20.22.701c-.86.018-1.68.368-2.288.977L1.625 17.984l-.926.924v24.467h16.315v-15h7.972v15h16.315V18.832l-1.02-.94L22.55 1.58a3.336 3.336 0 00-2.33-.879zm.014.6a2.732 2.732 0 011.909.72l17.732 16.315.824.76v23.677H25.586v-15h-9.172v15H1.301V19.158l.748-.75L18.355 2.102c.5-.5 1.174-.787 1.88-.801zm.008 2.154l-.096.135a4.7 4.7 0 00-.033.015l-.101.11-.012.058L3.557 20.092v20.426h10.6V28.074a2.559 2.559 0 012.558-2.556h8.57a2.556 2.556 0 012.559 2.556v12.444h10.6V20.084L20.585 3.77l-.035-.08-.059-.063-.092-.05a.197.197 0 00-.037-.01zm.22.201h.032l.012.014c.008.01.033.05.033.049l.004.01zm-.38.004h.016l-.04.055-.033.033.041-.072.016-.016zm.219.66l17.543 16.03v19.566h-9.4V28.074a3.159 3.159 0 00-3.159-3.158h-8.57a3.158 3.158 0 00-3.158 3.158v11.842h-9.4V20.342z"/></symbol><symbol id="right-slider-icon" viewBox="0 0 8 14" fill="currentColor"><path d="M.293.293a1 1 0 000 1.414l4.586 4.586a.985.985 0 010 1.414L.293 12.293a1 1 0 000 1.414 1 1 0 001.414 0l4.586-4.586a3.015 3.015 0 000-4.242L1.707.293a1 1 0 00-1.414 0z"/></symbol><symbol id="left-slider-icon" viewBox="0 0 8 14" fill="currentColor"><path d="M7 0a1 1 0 00-.707.293L1.707 4.879a3.015 3.015 0 000 4.242l4.586 4.586a1 1 0 001.414 0 1 1 0 000-1.414L3.121 7.707a.985.985 0 010-1.414l4.586-4.586a1 1 0 000-1.414A1 1 0 007 0z"/></symbol><symbol id="search-normal-icon" viewBox="0 0 20 20" fill="currentColor"><path d="M9.536 19.072C4.279 19.072 0 14.792 0 9.536 0 4.279 4.28 0 9.536 0c5.256 0 9.536 4.28 9.536 9.536 0 5.256-4.28 9.536-9.536 9.536zm0-17.677c-4.494 0-8.14 3.657-8.14 8.14 0 4.485 3.646 8.141 8.14 8.141 4.493 0 8.14-3.656 8.14-8.14s-3.647-8.14-8.14-8.14zm9.769 18.607a.69.69 0 01-.494-.205l-1.86-1.86a.702.702 0 010-.987c.27-.27.716-.27.986 0l1.86 1.861c.27.27.27.716 0 .986a.69.69 0 01-.492.205z"/></symbol><symbol id="smart-home-icon" viewBox="0 0 40 40" fill="currentColor"><path d="M30.531 38.883H19.128a1.39 1.39 0 01-1.38-1.38c0-.754.626-1.38 1.38-1.38H30.53c1.968 0 3.9-1.636 4.23-3.586l2.446-14.64c.221-1.324-.514-3.219-1.544-4.046L22.917 3.66c-1.472-1.177-3.918-1.177-5.371-.018L4.8 13.85c-1.048.845-1.766 2.722-1.545 4.046l.515 3.108a1.365 1.365 0 01-1.14 1.582c-.754.147-1.453-.386-1.582-1.14l-.515-3.09c-.386-2.28.717-5.205 2.538-6.658L15.817 1.49c2.465-1.987 6.345-1.968 8.828.018L37.391 11.7c1.803 1.453 2.906 4.377 2.538 6.658l-2.446 14.64c-.551 3.255-3.66 5.886-6.952 5.886zm-23.174.349a1.382 1.382 0 01-1.38-1.342c-.054-2.483-1.691-4.12-4.174-4.175A1.378 1.378 0 01.46 32.297a1.37 1.37 0 011.38-1.342h.036c3.955.092 6.787 2.906 6.86 6.86a1.39 1.39 0 01-1.342 1.416h-.037z"/><path d="M12.875 39.232c-.754 0-1.38-.607-1.38-1.36a11.269 11.269 0 00-.588-3.459c-.938-2.685-2.943-4.671-5.628-5.628a10.266 10.266 0 00-3.458-.588c-.754 0-1.38-.625-1.36-1.398 0-.754.625-1.361 1.379-1.361h.018c1.527.018 2.98.276 4.34.754 3.477 1.232 6.07 3.826 7.302 7.302.479 1.36.736 2.832.755 4.34 0 .773-.607 1.398-1.38 1.398zm-11.035.46c-1.03 0-1.84-.828-1.84-1.84 0-1.01.828-1.838 1.84-1.838 1.01 0 1.838.827 1.838 1.839 0 1.011-.809 1.84-1.839 1.84z"/></symbol><symbol id="user-octagon-icon" viewBox="0 0 44 48" fill="currentColor"><path d="M21.99.512a8.406 8.406 0 00-4.207 1.125L4.707 9.187a1.5 1.5 0 00-.01.006A8.489 8.489 0 00.5 16.496v15.057a8.442 8.442 0 004.207 7.31l13.076 7.551a1.5 1.5 0 00.006.002 8.466 8.466 0 008.428-.002l13.076-7.55a1.5 1.5 0 00.01-.007 8.492 8.492 0 004.197-7.304V16.496a8.477 8.477 0 00-4.197-7.303 1.5 1.5 0 00-.01-.005L26.217 1.636a1.5 1.5 0 00-.006-.004A8.504 8.504 0 0021.99.512zm.002 2.998a5.5 5.5 0 012.73.726l13.061 7.543c1.688.992 2.717 2.76 2.717 4.717v15.057a5.487 5.487 0 01-2.717 4.717l-13.066 7.544a5.457 5.457 0 01-5.44-.002l-13.07-7.548A5.429 5.429 0 013.5 31.553V16.496a5.487 5.487 0 012.717-4.717l13.066-7.545a5.411 5.411 0 012.71-.724z"/><path d="M22.012 10.064c-3.644 0-6.631 2.986-6.631 6.63 0 3.643 2.987 6.63 6.63 6.63 3.644 0 6.63-2.987 6.63-6.63 0-3.644-2.986-6.63-6.63-6.63zm0 3a3.606 3.606 0 013.629 3.63 3.608 3.608 0 01-3.63 3.63 3.61 3.61 0 01-3.63-3.63 3.608 3.608 0 013.63-3.63zm0 12.543c-5.526 0-10.307 3.72-10.307 8.676a1.5 1.5 0 001.5 1.5 1.5 1.5 0 001.5-1.5c0-2.968 3.102-5.676 7.307-5.676 4.204 0 7.304 2.708 7.304 5.676a1.5 1.5 0 001.5 1.5 1.5 1.5 0 001.5-1.5c0-4.957-4.778-8.676-10.304-8.676z"/></symbol><symbol id="bed-icon" viewBox="0 0 30 22" fill="currentColor"><path d="M25 4.5H12v7.539h-1.385V9.476A5.482 5.482 0 005.14 4H2V0H0v21.5h2v-2.984l26 .208V21.5h2v-12a5.006 5.006 0 00-5-5zM2 6h3.14a3.48 3.48 0 013.475 3.476v2.563H2V6zm26 10.724l-26-.208v-2.477h26v2.685zm0-4.685H14V6.5h11a3.003 3.003 0 013 3v2.539z"/></symbol><symbol id="bathroom-icon" viewBox="0 0 24 24" fill="currentColor"><path d="M22.4 13.26H3.2v-9a2.563 2.563 0 01.756-1.825l.02-.02a2.585 2.585 0 012.93-.508 3.955 3.955 0 00.589 4.832l.547.547-1.008 1.008 1.132 1.131 1.007-1.007 5.585-5.585 1.008-1.008L14.634.694l-1.008 1.008-.547-.548A3.954 3.954 0 008.032.705a4.18 4.18 0 00-5.188.579l-.02.02A4.153 4.153 0 001.6 4.26v9H0v1.6h1.6v1.535c0 .129.02.257.062.38l1.488 4.464a1.199 1.199 0 001.138.82h.645l-.583 2h1.667l.583-2h10.405l.6 2h1.67l-.6-2h1.037a1.198 1.198 0 001.138-.82l1.488-4.465a1.2 1.2 0 00.062-.38V14.86H24v-1.6h-1.6zM8.626 2.286a2.351 2.351 0 013.322 0l.547.547-3.321 3.322-.548-.548a2.351 2.351 0 010-3.321zM20.8 16.33l-1.377 4.13H4.577L3.2 16.33v-1.47h17.6v1.47z"/></symbol><symbol id="fire-icon" viewBox="0 0 20 23" fill="currentColor"><path d="M12.408 11.253c.26-.427.527-.867.793-1.322.887-1.52 1.05-3.053.484-4.554-1.142-3.03-4.96-4.875-5.843-5.17L7.221 0l-.97 1.94.468.382c.005.005.525.459.56 1.147.03.588-.293 1.223-.958 1.888-.462.462-.968.908-1.505 1.381C2.56 8.726 0 10.98 0 15.244a7.145 7.145 0 002.194 5.201 7.277 7.277 0 005.09 2.06h4.347l-.537-1.088c-2.18-4.426-.638-6.958 1.314-10.164z"/><path d="M19.823 15.195l-.04-.15c-.545-1.998-3.561-4.567-3.903-4.854l-.688-.575-.45.775c-1.027 1.765-1.908 3.375-2.292 5.202-.438 2.083-.143 4.2.902 6.473l.201.44h.514a5.909 5.909 0 004.687-2.29 5.814 5.814 0 001.069-5.02z"/></symbol><symbol id="fill-home-icon" viewBox="0 0 20 22" fill="currentColor"><path d="M19.539 8.557L10.673.401a1.518 1.518 0 00-2.1.044L.417 8.598 0 9.017v12.02h7.857v-7.5h4.286v7.5H20V8.982l-.461-.425z"/></symbol><symbol id="dollar-icon" viewBox="0 0 16 16" fill="currentColor"><path fill-rule="evenodd" clip-rule="evenodd" d="M6.216 15l-.111 1h2.012l.111-1h1.775a3.997 3.997 0 00.867-7.899L9.15 6.72 9.45 4H13V1H9.784l.111-1H7.883l-.111 1H5.997a3.997 3.997 0 00-.867 7.899l1.721.382L6.55 12H3v3h3.216zm2.346-3h1.441a.997.997 0 00.216-1.97l-1.404-.312L8.562 12zM7.185 6.282L7.438 4H5.997a.997.997 0 00-.216 1.97l1.404.312z"/></symbol><symbol id="search-normal-icon" viewBox="0 0 20 20" fill="currentColor"><path d="M9.536 19.072C4.279 19.072 0 14.792 0 9.536 0 4.279 4.28 0 9.536 0c5.256 0 9.536 4.28 9.536 9.536 0 5.256-4.28 9.536-9.536 9.536zm0-17.677c-4.494 0-8.14 3.657-8.14 8.14 0 4.485 3.646 8.141 8.14 8.141 4.493 0 8.14-3.656 8.14-8.14s-3.647-8.14-8.14-8.14zm9.769 18.607a.69.69 0 01-.494-.205l-1.86-1.86a.702.702 0 010-.987c.27-.27.716-.27.986 0l1.86 1.861c.27.27.27.716 0 .986a.69.69 0 01-.492.205z"/></symbol><symbol id="search-icon" viewBox="0 0 32 32" fill="currentColor"><path d="M10.631 1.072c-2.387.278-4.678 1.399-6.419 3.14A10.855 10.855 0 001.575 8.43l-.022.076c-.786 2.366-.717 5.102.187 7.384 2.145 5.414 8.007 8.221 13.522 6.475.98-.31 1.784-.702 2.756-1.342.249-.164.462-.271.488-.245.024.026.419.959.878 2.074l.834 2.027 2.625 2.629c1.851 1.854 2.74 2.707 3.014 2.892a3.293 3.293 0 003.452.132c1.042-.578 1.676-1.671 1.678-2.891.001-.581-.074-.916-.321-1.432-.277-.581-.566-.897-3.367-3.685l-2.365-2.354-2.053-.842c-1.129-.463-2.07-.856-2.091-.873s.12-.271.312-.564c2.821-4.299 2.223-10.018-1.427-13.675a10.881 10.881 0 00-6.303-3.124c-.672-.087-2.088-.099-2.74-.023zm2.756 1.621a9.38 9.38 0 016.933 5.088c.67 1.359.972 2.668.97 4.192-.005 2.464-.91 4.68-2.646 6.472-1.784 1.843-4.12 2.839-6.67 2.843-1.458.002-2.652-.258-4-.875-2.154-.984-3.962-2.933-4.788-5.161-.441-1.189-.597-2.063-.595-3.333.002-1.238.137-2.028.537-3.147 1.221-3.41 4.403-5.862 7.992-6.159a11.411 11.411 0 012.267.079zm8.605 17.971l2.059.851 2.532 2.536c2.182 2.186 2.551 2.578 2.67 2.838.34.744.175 1.53-.43 2.064-.358.315-.754.45-1.231.421-.695-.043-.672-.025-3.499-2.853l-2.547-2.549-.821-1.981c-.894-2.16-.92-2.226-.843-2.197l2.111.871z"/></symbol><symbol id="arrow-icon" viewBox="0 0 22 16" fill="currentColor"><path d="M1 7a1 1 0 000 2V7zm20.707 1.707a1 1 0 000-1.414L15.343.929a1 1 0 10-1.414 1.414L19.586 8l-5.657 5.657a1 1 0 001.414 1.414l6.364-6.364zM1 9h20V7H1v2z"/></symbol><symbol id="quotes-icon" viewBox="0 0 60 38" fill="currentColor"><path d="M15.96 0L0 37.263h21.724L30.148 0H15.96zm29.853 0l-15.96 37.263h21.723L60 0H45.813z"/></symbol><symbol id="linkedin-icon" viewBox="0 0 22 22" fill="currentColor"><path d="M4.925 22H.364V7.313h4.561v14.689zM2.642 5.309C1.183 5.308 0 4.1 0 2.642a2.642 2.642 0 015.283 0c0 1.458-1.183 2.666-2.641 2.666zm19.354 16.693h-4.55v-7.15c0-1.705-.036-3.89-2.372-3.89-2.372 0-2.736 1.851-2.736 3.767v7.273H7.782V7.312h4.374v2.004h.064c.609-1.155 2.096-2.372 4.315-2.372 4.616 0 5.465 3.04 5.465 6.988v8.069h-.004z"/></symbol><symbol id="instagram-icon" viewBox="0 0 22 22" fill="currentColor"><path d="M11 0C8.01 0 7.637.014 6.467.064c-1.175.058-1.97.24-2.672.512a5.389 5.389 0 00-1.947 1.272A5.333 5.333 0 00.576 3.795C.304 4.497.122 5.292.064 6.467.01 7.637 0 8.01 0 11s.014 3.363.064 4.533c.058 1.172.24 1.97.512 2.671.283.724.66 1.34 1.272 1.948a5.334 5.334 0 001.947 1.272c.702.269 1.5.454 2.672.512C7.637 21.99 8.01 22 11 22s3.363-.014 4.533-.064c1.172-.058 1.97-.244 2.671-.512a5.397 5.397 0 001.948-1.271 5.307 5.307 0 001.272-1.948c.269-.702.454-1.5.512-2.672C21.99 14.363 22 13.99 22 11s-.014-3.363-.064-4.533c-.058-1.172-.244-1.974-.512-2.672a5.397 5.397 0 00-1.271-1.947A5.306 5.306 0 0018.204.576c-.702-.272-1.5-.454-2.672-.512C14.363.01 13.99 0 11 0zm0 1.98c2.937 0 3.287.015 4.448.064 1.07.05 1.654.23 2.04.38.517.2.878.437 1.269.823.383.383.62.749.82 1.265.15.387.33.97.38 2.04.049 1.161.063 1.513.063 4.449s-.014 3.287-.068 4.448c-.057 1.07-.236 1.653-.387 2.04-.208.517-.44.878-.824 1.268a3.47 3.47 0 01-1.268.82c-.382.151-.974.33-2.048.38-1.167.05-1.511.064-4.455.064-2.945 0-3.288-.014-4.456-.068-1.07-.058-1.661-.236-2.048-.387A3.45 3.45 0 013.2 18.74a3.303 3.303 0 01-.823-1.267c-.154-.383-.33-.974-.387-2.049-.039-1.153-.058-1.51-.058-4.44 0-2.93.02-3.288.058-4.456.057-1.074.233-1.664.387-2.048.19-.523.437-.88.823-1.268a3.28 3.28 0 011.265-.824c.387-.15.963-.33 2.038-.383 1.167-.042 1.51-.057 4.45-.057L11 1.98zm0 3.374a5.645 5.645 0 00-5.647 5.647A5.645 5.645 0 0011 16.648a5.645 5.645 0 005.647-5.647A5.645 5.645 0 0011 5.354zm0 9.314a3.665 3.665 0 01-3.667-3.667A3.665 3.665 0 0111 7.334a3.665 3.665 0 013.667 3.667A3.665 3.665 0 0111 14.668zm7.195-9.54a1.322 1.322 0 01-2.643 0 1.322 1.322 0 012.643 0z"/></symbol><symbol id="facebook-icon" viewBox="0 0 12 22" fill="currentColor"><path d="M11.01 12.374l.611-3.981h-3.82V5.809c0-1.089.534-2.15 2.245-2.15h1.736V.268S10.207 0 8.7 0C5.554 0 3.497 1.907 3.497 5.36v3.034H0v3.981h3.497V22h4.304v-9.625h3.21z"/></symbol><symbol id="register-icon" viewBox="0 0 310 310" fill="currentColor"><path d="M300.606 159.727l-45.333-45.333c-5.857-5.858-15.355-5.858-21.213 0l-9.06 9.06V15c0-8.284-6.716-15-15-15H20C11.716 0 5 6.716 5 15v240.002c0 8.284 6.716 15 15 15h85V295c0 8.284 6.716 15 15 15h45.333a15 15 0 0010.607-4.394l124.667-124.667c5.858-5.858 5.858-15.354-.001-21.212zM35 30h160v123.454l-85.606 85.605c-.302.301-.581.619-.854.942H35V30zm124.12 250H135v-24.121l109.667-109.666 24.12 24.12L159.12 280z"/></symbol></defs></svg>