<svg aria-hidden="true" style="position: absolute; width: 0; height: 0; overflow: hidden;" version="1.1" xmlns="http://www.w3.org/2000/svg" xmlns:xlink="http://www.w3.org/1999/xlink">
<defs>
<symbol id="pin-icon" viewBox="0 0 14 18" fill="currentColor">
<path d="m 7,0.40039063 c -3.6595882,0 -6.59960937,3.16138627 -6.59960937,6.99999997 0,2.1067989 1.59655357,4.4974734 3.12304687,6.4902344 1.5264933,1.992761 3.0507812,3.53125 3.0507812,3.53125 L 7,17.853516 7.4257812,17.421875 c 0,0 1.524288,-1.538489 3.0507818,-3.53125 1.526493,-1.992761 3.123046,-4.3834355 3.123046,-6.4902344 C 13.599609,3.5617757 10.659579,0.40039063 7,0.40039063 Z M 7,1.5996094 c 2.9678142,0 5.400391,2.5701632 5.400391,5.8007812 0,1.4277977 -1.40345,3.8361804 -2.8769535,5.7597654 C 8.2628342,14.805811 7.3386462,15.733682 7,16.083984 6.6613538,15.733682 5.7371658,14.805811 4.4765625,13.160156 3.0030588,11.236571 1.5996094,8.8281883 1.5996094,7.4003906 1.5996094,4.1697715 4.0321748,1.5996094 7,1.5996094 Z"></path>
<path d="M 7,6 C 6.2399066,6 5.6503906,6.6545711 5.6503906,7.4003906 c 0,0.7458226 0.5895256,1.4003907 1.3496094,1.4003907 0.7600838,0 1.3496094,-0.6545681 1.3496094,-1.4003907 C 8.3496094,6.6545711 7.7600934,6 7,6 Z m 0,1.1992187 c 0.068346,0 0.1503906,0.063332 0.1503906,0.2011719 0,0.1378565 -0.082035,0.1992188 -0.1503906,0.1992188 -0.068355,0 -0.1503906,-0.061362 -0.1503906,-0.1992188 C 6.8496094,7.262551 6.9316543,7.1992187 7,7.1992187 Z"></path>
</symbol>
<symbol id="phone-icon" viewBox="0 0 16 16" fill="currentColor">
<path d="M15.5425 1.66261L15.5161 1.64609L12.1749 0L8.56855 4.8084L10.2277 7.02078C10.1781 7.85512 9.82426 8.6423 9.23324 9.23331C8.64223 9.82432 7.85504 10.1781 7.0207 10.2278L4.80836 8.56859L0 12.1748L1.6324 15.4881L1.64613 15.5161L1.66269 15.5425C1.7498 15.6829 1.87139 15.7986 2.01588 15.8787C2.16036 15.9587 2.32295 16.0005 2.48814 16H3.3503C5.01148 16 6.6564 15.6728 8.19114 15.0371C9.72587 14.4014 11.1204 13.4696 12.295 12.295C13.4696 11.1203 14.4014 9.72584 15.0371 8.1911C15.6728 6.65636 16 5.01144 16 3.35026V2.48807C16.0005 2.32287 15.9588 2.16029 15.8787 2.0158C15.7986 1.87131 15.6829 1.74972 15.5425 1.66261ZM14.7653 3.35026C14.7653 9.64451 9.64451 14.7653 3.3503 14.7653H2.65267L1.56047 12.548L4.8086 10.1119L6.61698 11.4682H6.82276C8.05445 11.4668 9.23529 10.9769 10.1062 10.106C10.9772 9.23502 11.4671 8.05418 11.4684 6.82249V6.61671L10.1122 4.80836L12.548 1.56043L14.7653 2.65283V3.35026Z"></path>
</symbol>
<symbol id="mail-icon" viewBox="0 0 18 13" fill="currentColor">
<path d="M 13.103516,3.609375 A 0.60000002,0.60000002 0 0 0 12.65625,3.7089844 L 9,6.2675781 5.34375,3.7089844 A 0.60000002,0.60000002 0 0 0 4.5078125,3.8554688 0.60000002,0.60000002 0 0 0 4.65625,4.6914062 l 4,2.8007813 a 0.60006002,0.60006002 0 0 0 0.6875,0 l 4,-2.8007813 A 0.60000002,0.60000002 0 0 0 13.492188,3.8554688 0.60000002,0.60000002 0 0 0 13.103516,3.609375 Z"></path>
<path d="m 2.5996094,0.40039063 c -1.2079193,0 -2.19921877,0.99129947 -2.19921877,2.19921877 v 7.9999996 c 0,1.207945 0.99131757,2.201172 2.19921877,2.201172 H 15.400391 c 1.207926,0 2.199218,-0.993245 2.199218,-2.201172 V 2.5996094 c 0,-1.2079012 -0.991274,-2.19921877 -2.199218,-2.19921877 z m 0,1.19921877 H 15.400391 c 0.559453,0 1,0.4405829 1,1 v 7.9999996 c 0,0.559472 -0.440529,1 -1,1 H 2.5996094 c -0.5594171,0 -1,-0.440546 -1,-1 V 2.5996094 c 0,-0.559399 0.440601,-1 1,-1 z"></path>
</symbol>
<symbol id="user-octagon-icon" viewBox="0 0 29 32" fill="currentColor">
<path d="M14.048 0.391c-0.587 0.071-1.121 0.217-1.619 0.431l0.038-0.015c-0.415 0.178-9.288 5.291-9.778 5.635-0.887 0.623-1.696 1.719-2.045 2.773-0.283 0.855-0.27 0.551-0.289 6.503-0.012 3.793-0.001 5.621 0.037 5.949 0.189 1.652 1.039 3.073 2.398 4.011 0.591 0.407 9.358 5.438 9.757 5.598 0.792 0.319 1.119 0.377 2.121 0.378 1.009 0.001 1.399-0.069 2.159-0.39 0.447-0.188 9.447-5.377 9.858-5.683 0.714-0.536 1.288-1.22 1.683-2.009l0.015-0.033c0.306-0.617 0.478-1.178 0.555-1.809 0.072-0.586 0.075-10.781 0.004-11.368-0.191-1.575-1.056-3.050-2.296-3.921-0.367-0.257-8.983-5.244-9.533-5.518-0.893-0.443-2.025-0.641-3.063-0.533zM15.522 2.445c0.211 0.053 0.505 0.154 0.656 0.223 0.465 0.212 9.079 5.211 9.419 5.465 0.411 0.309 0.753 0.731 1.021 1.264 0.414 0.821 0.393 0.472 0.393 6.639 0 4.248-0.014 5.511-0.063 5.72-0.22 0.949-0.777 1.787-1.527 2.296-0.437 0.298-8.735 5.082-9.215 5.313-1.064 0.513-2.129 0.486-3.251-0.080-0.444-0.224-8.733-5.021-9.069-5.248-0.725-0.49-1.269-1.293-1.477-2.179-0.081-0.345-0.087-0.761-0.087-5.823 0-6.167-0.021-5.818 0.393-6.639 0.268-0.533 0.61-0.956 1.023-1.265 0.295-0.221 8.806-5.166 9.406-5.465 0.648-0.323 1.625-0.414 2.377-0.221zM13.909 6.795c-1.027 0.183-2.013 0.773-2.67 1.601-0.596 0.747-0.956 1.705-0.956 2.747 0 0.803 0.214 1.556 0.588 2.206l-0.011-0.021c1.147 2.004 3.658 2.771 5.747 1.755 1.113-0.542 1.916-1.502 2.299-2.751 0.117-0.382 0.131-0.505 0.133-1.184 0.001-0.643-0.015-0.815-0.107-1.139-0.437-1.519-1.546-2.655-3.018-3.093-0.361-0.107-0.558-0.133-1.1-0.147-0.363-0.009-0.77 0.004-0.905 0.027zM15.268 8.775c0.44 0.115 0.765 0.305 1.115 0.655 0.361 0.361 0.547 0.685 0.655 1.141 0.042 0.169 0.066 0.363 0.066 0.563 0 1.22-0.898 2.231-2.069 2.408l-0.013 0.002c-1.305 0.199-2.557-0.735-2.757-2.056-0.18-1.187 0.609-2.396 1.763-2.697 0.403-0.105 0.877-0.111 1.241-0.017zM13.518 17.184c-1.197 0.185-2.221 0.573-3.113 1.179-1.609 1.091-2.54 2.678-2.554 4.349-0.003 0.447 0.007 0.508 0.118 0.673 0.089 0.121 0.193 0.226 0.31 0.313l0.004 0.003c0.263 0.183 0.742 0.191 1.022 0.017 0.317-0.197 0.431-0.426 0.483-0.972 0.087-0.902 0.448-1.653 1.083-2.247 1.193-1.116 2.941-1.619 4.713-1.356 1.928 0.287 3.495 1.492 3.876 2.982 0.053 0.209 0.097 0.498 0.097 0.643 0 0.782 0.729 1.305 1.393 0.998 0.394-0.182 0.563-0.494 0.563-1.043 0-1.685-1.056-3.401-2.767-4.497-0.648-0.415-1.771-0.842-2.611-0.993-0.627-0.113-2.033-0.139-2.615-0.049z"></path>
</symbol>
<symbol id="user-circle-icon" viewBox="0 0 32 32" fill="currentColor">
<path d="M14.96 0.352c-3.272 0.262-6.234 1.413-8.731 3.39-0.908 0.765-1.722 1.578-2.462 2.456l-0.025 0.030c-1.786 2.253-2.886 4.858-3.296 7.798-0.128 0.926-0.128 3.019 0 3.946 0.41 2.941 1.51 5.546 3.296 7.798 0.558 0.704 1.782 1.928 2.486 2.486 2.253 1.786 4.858 2.886 7.798 3.296 0.926 0.128 3.019 0.128 3.946 0 2.938-0.41 5.547-1.512 7.8-3.298 0.908-0.763 1.721-1.575 2.458-2.453l0.025-0.030c1.786-2.253 2.888-4.862 3.298-7.8 0.128-0.926 0.128-3.019 0-3.946-0.41-2.938-1.512-5.547-3.298-7.8-0.764-0.908-1.577-1.721-2.455-2.46l-0.030-0.025c-2.146-1.713-4.794-2.888-7.69-3.279l-0.081-0.009c-0.618-0.083-2.493-0.146-3.040-0.102zM17.92 3.011c0.971 0.164 1.824 0.386 2.646 0.674l-0.111-0.034c0.746 0.274 2.038 0.915 2.638 1.31 1.564 1.036 2.867 2.333 3.878 3.842l0.031 0.050c0.426 0.646 1.064 1.92 1.347 2.691 0.25 0.682 0.518 1.749 0.643 2.563 0.139 0.901 0.139 2.885 0 3.786-0.218 1.454-0.648 2.765-1.262 3.967l0.034-0.073c-0.635 1.304-1.437 2.42-2.398 3.377l-0 0c-1.008 1.048-2.191 1.918-3.504 2.564l-0.073 0.033c-1.129 0.581-2.44 1.012-3.823 1.222l-0.071 0.009c-0.901 0.139-2.885 0.139-3.786 0-2.344-0.367-4.424-1.291-6.166-2.633l0.031 0.023c-0.549-0.414-1.941-1.806-2.355-2.355-0.778-1.028-1.44-2.207-1.932-3.471l-0.034-0.1c-0.261-0.723-0.485-1.586-0.631-2.475l-0.012-0.088c-0.139-0.901-0.139-2.885 0-3.786 0.366-2.344 1.291-4.424 2.633-6.166l-0.023 0.031c0.384-0.509 1.723-1.862 2.253-2.278 1.058-0.81 2.27-1.499 3.573-2.008l0.101-0.035c0.946-0.347 2.022-0.581 3.389-0.739 0.427-0.050 2.456 0.019 2.987 0.099zM15.173 6.157c-0.858 0.134-1.547 0.4-2.266 0.874-1.71 1.126-2.694 3.211-2.461 5.213 0.141 1.218 0.549 2.162 1.349 3.122 0.147 0.178 0.261 0.33 0.25 0.336-0.010 0.008-0.21 0.13-0.443 0.27-1.96 1.174-3.44 3.259-3.891 5.475-0.11 0.55-0.21 1.67-0.168 1.926 0.074 0.432 0.346 0.788 0.717 0.976l0.008 0.003c0.253 0.133 0.813 0.133 1.066 0 0.52-0.272 0.694-0.595 0.75-1.392 0.074-1.034 0.262-1.717 0.717-2.573 0.301-0.568 0.6-0.952 1.154-1.482 0.399-0.4 0.864-0.734 1.376-0.985l0.030-0.013c0.771-0.393 1.682-0.623 2.647-0.623 1.23 0 2.373 0.374 3.321 1.016l-0.021-0.013c0.368 0.242 1.11 0.949 1.422 1.354 0.131 0.17 0.342 0.506 0.47 0.747 0.454 0.856 0.643 1.539 0.717 2.573 0.045 0.64 0.138 0.899 0.411 1.154 0.206 0.209 0.492 0.338 0.808 0.338 0.022 0 0.045-0.001 0.067-0.002l-0.003 0c0.65 0 1.155-0.432 1.258-1.077 0.042-0.259-0.058-1.382-0.17-1.926-0.516-2.332-1.931-4.264-3.853-5.454l-0.037-0.021c-0.251-0.147-0.395-0.236-0.539-0.327l0.096 0.057c0.075-0.127 0.158-0.237 0.251-0.337l-0.001 0.001c0.8-0.96 1.208-1.904 1.349-3.122 0.15-1.286-0.226-2.712-1.005-3.811-1.032-1.421-2.689-2.335-4.559-2.335-0.288 0-0.572 0.022-0.848 0.064l0.031-0.004zM16.982 8.797c0.875 0.307 1.606 1.040 1.906 1.909 0.179 0.518 0.179 1.43 0 1.949-0.329 0.896-1.024 1.59-1.9 1.91l-0.022 0.007c-0.509 0.176-1.427 0.174-1.941-0.003-0.896-0.329-1.59-1.024-1.91-1.9l-0.007-0.022c-0.174-0.506-0.174-1.427 0-1.933 0.366-1.016 1.212-1.778 2.257-2.018l0.021-0.004c0.357-0.078 1.242-0.019 1.595 0.106z"></path>
</symbol>
<symbol id="star-icon" viewBox="0 0 32 32">
<path fill="#ffc700" style="fill: var(--color1, #ffc700)" d="M15.451 0.062c-0.587 0.112-1.234 0.512-1.591 0.987-0.107 0.142-1.015 1.854-2.018 3.803-1.003 1.952-1.833 3.557-1.845 3.568-0.011 0.009-1.767 0.304-3.902 0.649-2.135 0.347-3.991 0.658-4.123 0.693-1.144 0.331-1.966 1.369-1.966 2.6 0 0.559 0.17 1.079 0.461 1.511l-0.006-0.010c0.107 0.16 1.463 1.568 3.015 3.127l2.818 2.837-0.613 3.991c-0.116 0.548-0.332 1.983-0.528 3.425l-0.087 0.783c0.002 0.642 0.309 1.351 0.798 1.847 0.357 0.361 0.658 0.546 1.175 0.718 0.409 0.137 1.143 0.126 1.57-0.025 0.174-0.062 1.906-0.914 3.851-1.897l3.536-1.785 3.589 1.808c1.973 0.994 3.73 1.851 3.906 1.902 1.454 0.423 3.003-0.507 3.36-2.018 0.043-0.183 0.080-0.427 0.080-0.544s-0.277-2.009-0.615-4.203l-0.617-3.993 2.83-2.85c1.557-1.568 2.914-2.978 3.017-3.134 0.279-0.418 0.445-0.933 0.445-1.486 0-1.23-0.821-2.268-1.946-2.596l-0.019-0.005c-0.133-0.034-1.989-0.345-4.123-0.693s-3.893-0.64-3.904-0.651c-0.011-0.011-0.816-1.568-1.79-3.461-0.971-1.89-1.824-3.534-1.89-3.653-0.282-0.424-0.657-0.764-1.097-0.998l-0.016-0.008c-0.355-0.184-0.774-0.292-1.219-0.292-0.19 0-0.375 0.020-0.554 0.057l0.018-0.003z"></path>
</symbol>
<symbol id="smart-home-icon" viewBox="0 0 32 32" fill="currentColor">
<path style="fill: var(--color2, #4361ee)" d="M15.466 0.054c-0.885 0.105-1.685 0.4-2.38 0.844l0.023-0.014c-0.358 0.23-1.486 1.126-7.722 6.131-3.706 2.974-3.727 2.994-4.283 4.070-0.478 0.925-0.73 1.894-0.73 2.806 0 0.629 0.433 3.3 0.582 3.59 0.358 0.698 1.279 0.804 1.803 0.206 0.326-0.37 0.327-0.459 0.042-2.208-0.244-1.501-0.251-1.576-0.19-1.994 0.121-0.824 0.476-1.612 0.962-2.133 0.132-0.142 2.58-2.131 5.44-4.422 3.846-3.080 5.297-4.212 5.573-4.349 0.981-0.485 2.328-0.456 3.288 0.070 0.542 0.298 10.766 8.482 11.055 8.85 0.51 0.65 0.844 1.585 0.843 2.362-0.001 0.341-0.255 1.965-1.019 6.508l-1.018 6.053-0.212 0.427c-0.36 0.739-0.944 1.323-1.662 1.674l-0.021 0.009c-0.758 0.377-0.615 0.368-5.974 0.37-4.526 0.002-4.812 0.007-5.014 0.099-0.373 0.17-0.666 0.606-0.666 0.994 0 0.379 0.276 0.802 0.649 0.991 0.201 0.103 0.321 0.105 5.338 0.090 5.119-0.016 5.134-0.016 5.539-0.134 1.051-0.306 1.907-0.806 2.665-1.558 0.728-0.722 1.246-1.581 1.485-2.461 0.059-0.217 0.566-3.142 1.127-6.502 1.007-6.036 1.019-6.114 0.991-6.72-0.063-1.393-0.662-2.87-1.555-3.831-0.247-0.266-2.030-1.728-5.28-4.326-5.81-4.646-5.718-4.574-6.161-4.819-0.994-0.55-2.357-0.812-3.519-0.676zM1.039 20.473c-0.635 0.289-0.849 1.078-0.436 1.616 0.27 0.353 0.46 0.422 1.308 0.474 2.023 0.126 3.779 0.882 5.076 2.182 1.34 1.345 2.084 3.091 2.215 5.202 0.039 0.63 0.091 0.825 0.28 1.050 0.427 0.507 1.252 0.468 1.688-0.082l0.163-0.205-0.004-0.835c-0.002-0.637-0.032-0.98-0.123-1.448-0.426-2.176-1.232-3.731-2.699-5.203-1.601-1.606-3.587-2.528-6.027-2.796-0.734-0.081-1.194-0.066-1.441 0.046zM0.971 24.914c-0.71 0.351-0.778 1.402-0.12 1.838 0.15 0.1 0.326 0.153 0.626 0.189 1.4 0.169 2.217 0.604 2.776 1.476 0.332 0.519 0.439 0.901 0.576 2.046 0.1 0.838 1.171 1.188 1.802 0.588 0.317-0.301 0.378-0.575 0.301-1.334-0.257-2.498-1.93-4.334-4.387-4.814-0.714-0.139-1.277-0.135-1.574 0.012zM0.994 28.908c-0.634 0.19-1.073 0.953-0.942 1.641 0.065 0.34 0.114 0.438 0.363 0.713 0.306 0.339 0.553 0.443 1.052 0.443 0.508 0 0.74-0.101 1.080-0.47 0.669-0.726 0.394-1.913-0.534-2.3-0.21-0.088-0.766-0.102-1.018-0.027z"></path>
</symbol>
<symbol id="search-normal-icon" viewBox="0 0 32 32" fill="currentColor">
<path d="M14.267 0.032c-1.438 0.146-2.062 0.253-3.094 0.536-2.857 0.823-5.29 2.363-7.174 4.414l-0.010 0.011c-0.925 1.008-1.72 2.156-2.345 3.405l-0.039 0.086c-1.007 1.951-1.597 4.258-1.597 6.703 0 0.192 0.004 0.382 0.011 0.572l-0.001-0.027c0.067 2.493 0.735 4.816 1.864 6.847l-0.039-0.076c1.945 3.54 5.149 6.184 8.996 7.356l0.108 0.028c2.144 0.648 4.645 0.792 6.907 0.4 5.942-1.071 10.636-5.45 12.15-11.127l0.024-0.107c0.303-1.144 0.477-2.457 0.477-3.811 0-1.111-0.117-2.195-0.34-3.24l0.018 0.101c-0.622-3.018-2.323-5.992-4.611-8.064-2.408-2.182-5.192-3.482-8.373-3.907-0.611-0.082-2.483-0.147-2.933-0.101zM17.12 2.374c1.001 0.145 1.9 0.382 2.754 0.709l-0.087-0.029c3.96 1.459 7.051 4.891 8.078 8.97 0.299 1.192 0.371 1.821 0.371 3.229 0 1.416-0.074 2.058-0.373 3.235-0.232 0.912-0.482 1.581-0.931 2.499-1.862 3.792-5.358 6.392-9.6 7.133-0.571 0.101-0.867 0.117-2.080 0.117-1.242 0.002-1.496-0.014-2.098-0.122-2.827-0.507-5.219-1.755-7.184-3.749-1.939-1.968-3.162-4.44-3.606-7.299-0.133-0.848-0.133-2.762 0-3.627 0.445-2.917 1.701-5.403 3.749-7.426 2.171-2.144 4.846-3.402 7.914-3.72 0.654-0.069 2.435-0.022 3.093 0.080z"></path>
</symbol>
<symbol id="search-icon" viewBox="0 0 32 32" fill="currentColor">
<path d="M10.631 1.072c-2.387 0.278-4.678 1.399-6.419 3.14-1.18 1.171-2.092 2.61-2.637 4.218l-0.022 0.076c-0.786 2.366-0.717 5.102 0.187 7.384 2.145 5.414 8.007 8.221 13.522 6.475 0.98-0.31 1.784-0.702 2.756-1.342 0.249-0.164 0.462-0.271 0.488-0.245 0.024 0.026 0.419 0.959 0.878 2.074l0.834 2.027 2.625 2.629c1.851 1.854 2.74 2.707 3.014 2.892 1.027 0.692 2.351 0.743 3.452 0.132 1.042-0.578 1.676-1.671 1.678-2.891 0.001-0.581-0.074-0.916-0.321-1.432-0.277-0.581-0.566-0.897-3.367-3.685l-2.365-2.354-2.053-0.842c-1.129-0.463-2.070-0.856-2.091-0.873s0.12-0.271 0.312-0.564c2.821-4.299 2.223-10.018-1.427-13.675-1.72-1.722-3.926-2.815-6.303-3.124-0.672-0.087-2.088-0.099-2.74-0.023zM13.387 2.693c2.99 0.468 5.6 2.384 6.933 5.088 0.67 1.359 0.972 2.668 0.97 4.192-0.005 2.464-0.91 4.68-2.646 6.472-1.784 1.843-4.12 2.839-6.67 2.843-1.458 0.002-2.652-0.258-4-0.875-2.154-0.984-3.962-2.933-4.788-5.161-0.441-1.189-0.597-2.063-0.595-3.333 0.002-1.238 0.137-2.028 0.537-3.147 1.221-3.41 4.403-5.862 7.992-6.159 0.642-0.053 1.647-0.018 2.267 0.079zM21.992 20.664l2.059 0.851 2.532 2.536c2.182 2.186 2.551 2.578 2.67 2.838 0.34 0.744 0.175 1.53-0.43 2.064-0.358 0.315-0.754 0.45-1.231 0.421-0.695-0.043-0.672-0.025-3.499-2.853l-2.547-2.549-0.821-1.981c-0.894-2.16-0.92-2.226-0.843-2.197 0.029 0.011 0.978 0.403 2.111 0.871z"></path>
</symbol>
<symbol id="rezilla-icon" viewBox="0 0 32 32" fill="currentColor">
<path d="M15.6 0.1c-0.117 0.055-3.621 2.825-7.787 6.159-8.095 6.476-7.813 6.235-7.813 6.712 0 0.257 0.123 0.557 0.308 0.751 0.237 0.248 0.552 0.305 1.675 0.305h1.004l0.001 8.573c0.001 8.221 0.005 8.583 0.1 8.787 0.106 0.244 0.301 0.433 0.544 0.528l0.007 0.002c0.176 0.073 1.3 0.083 10.28 0.083h10.081v-1.973h-4v-4.573c0-2.837-0.020-4.645-0.053-4.763-0.063-0.227-0.327-0.495-0.599-0.608-0.297-0.124-6.399-0.124-6.696 0-0.272 0.113-0.536 0.381-0.599 0.608-0.033 0.117-0.053 1.925-0.053 4.763v4.573h-6.987v-16l16.987-0.027 0.029-2-18.143-0.027 12.113-9.691 12.113 9.691-0.212 0.036c-0.407 0.071-0.681 0.283-0.832 0.643-0.072 0.171-0.083 0.617-0.083 3.267v3.068h2.027v-4.96l0.973-0.001c0.536-0.001 1.081-0.027 1.212-0.056 0.615-0.141 0.952-0.759 0.719-1.316-0.047-0.115-0.106-0.213-0.175-0.303l0.002 0.003c-0.213-0.244-15.259-12.235-15.421-12.291-0.095-0.037-0.204-0.058-0.319-0.058-0.147 0-0.286 0.035-0.409 0.098l0.005-0.002zM17.973 26.027v4h-3.947v-8h3.947v4z"></path>
</symbol>
<symbol id="icon-quote-icon" viewBox="0 0 51 32">
<path fill="#fff" style="fill: var(--color3, #fff)" d="M15.6 0.1c-0.117 0.055-3.621 2.825-7.787 6.159-8.095 6.476-7.813 6.235-7.813 6.712 0 0.257 0.123 0.557 0.308 0.751 0.237 0.248 0.552 0.305 1.675 0.305h1.004l0.001 8.573c0.001 8.221 0.005 8.583 0.1 8.787 0.106 0.244 0.301 0.433 0.544 0.528l0.007 0.002c0.176 0.073 1.3 0.083 10.28 0.083h10.081v-1.973h-4v-4.573c0-2.837-0.020-4.645-0.053-4.763-0.063-0.227-0.327-0.495-0.599-0.608-0.297-0.124-6.399-0.124-6.696 0-0.272 0.113-0.536 0.381-0.599 0.608-0.033 0.117-0.053 1.925-0.053 4.763v4.573h-6.987v-16l16.987-0.027 0.029-2-18.143-0.027 12.113-9.691 12.113 9.691-0.212 0.036c-0.407 0.071-0.681 0.283-0.832 0.643-0.072 0.171-0.083 0.617-0.083 3.267v3.068h2.027v-4.96l0.973-0.001c0.536-0.001 1.081-0.027 1.212-0.056 0.615-0.141 0.952-0.759 0.719-1.316-0.047-0.115-0.106-0.213-0.175-0.303l0.002 0.003c-0.213-0.244-15.259-12.235-15.421-12.291-0.095-0.037-0.204-0.058-0.319-0.058-0.147 0-0.286 0.035-0.409 0.098l0.005-0.002zM17.973 26.027v4h-3.947v-8h3.947v4z"></path>
</symbol>
<symbol id="icon-linkedin-icon" viewBox="0 0 32 32">
<path fill="#3a0ca3" style="fill: var(--color4, #3a0ca3)" d="M3.075 0.083c-0.508 0.102-0.957 0.297-1.35 0.569l0.012-0.008c-0.745 0.499-1.28 1.203-1.567 2.067-0.116 0.351-0.137 0.508-0.14 1.103-0.003 0.583 0.016 0.756 0.121 1.092 0.423 1.353 1.449 2.351 2.783 2.705 0.527 0.14 1.409 0.125 1.92-0.032 1.132-0.348 1.961-1.060 2.457-2.113 0.229-0.478 0.362-1.038 0.362-1.63 0-0.698-0.186-1.353-0.51-1.917l0.010 0.019c-0.269-0.483-0.951-1.162-1.439-1.434-0.774-0.429-1.855-0.601-2.659-0.42zM23.44 10.143c-1.946 0.116-3.785 1.002-4.96 2.385-0.189 0.223-0.422 0.543-0.519 0.71-0.096 0.169-0.192 0.307-0.214 0.307-0.022 0.001-0.041-0.646-0.041-1.439v-1.44h-6.4v21.334h6.668v-5.863c0-4.905 0.013-5.965 0.080-6.474 0.217-1.658 0.819-2.724 1.839-3.258 0.535-0.281 1.025-0.403 1.761-0.438 2.121-0.099 3.244 0.9 3.604 3.207 0.081 0.522 0.095 1.255 0.113 6.707l0.023 6.119h6.605v-6.467c0-6.419-0.020-7.287-0.191-8.573-0.509-3.83-2.228-5.969-5.318-6.614-0.692-0.145-1.486-0.228-2.3-0.228-0.264 0-0.527 0.009-0.787 0.026l0.035-0.002zM0.534 21.334v10.666h6.612v-21.334h-6.612v10.668z"></path>
</symbol>
<symbol id="icon-instagram-icon" viewBox="0 0 32 32">
<path fill="#3a0ca3" style="fill: var(--color4, #3a0ca3)" d="M11.066 0.036c-2.527 0.060-3.815 0.225-5.111 0.659-2.532 0.847-4.368 2.66-5.235 5.171-0.34 0.986-0.509 1.885-0.625 3.334-0.096 1.212-0.096 12.388 0 13.6 0.186 2.311 0.646 3.865 1.546 5.228 1.191 1.801 2.88 2.959 5.133 3.519 1.578 0.393 2.305 0.428 9.2 0.428 6.060 0 6.947-0.025 8.212-0.22 2.367-0.364 4.256-1.357 5.58-2.934 1.311-1.562 1.919-3.271 2.14-6.020 0.096-1.209 0.096-12.323 0-13.574-0.214-2.764-0.833-4.502-2.164-6.074-0.963-1.137-2.195-1.955-3.706-2.461-1.223-0.409-2.279-0.554-4.621-0.636-1.328-0.047-8.595-0.060-10.348-0.019zM18.16 2.88c5.302 0.077 6.145 0.16 7.494 0.742 0.611 0.263 1.004 0.531 1.562 1.068 0.986 0.947 1.495 2.074 1.711 3.791 0.129 1.018 0.192 3.495 0.193 7.494 0 5.425-0.093 7.407-0.401 8.63-0.422 1.67-1.424 2.966-2.822 3.654-0.879 0.432-1.779 0.644-3.257 0.768-1.133 0.096-12.147 0.096-13.28 0-2.364-0.198-3.53-0.64-4.672-1.772-0.614-0.609-0.941-1.097-1.22-1.82-0.387-1.004-0.513-1.833-0.593-3.914-0.074-1.939-0.032-11.607 0.055-12.506 0.228-2.374 0.934-3.827 2.377-4.895 0.845-0.625 2.113-1.033 3.626-1.164 1.315-0.113 4.697-0.141 9.228-0.076zM24.026 5.617c-0.567 0.189-1.004 0.566-1.231 1.063-0.129 0.281-0.153 0.403-0.154 0.787-0.001 0.407 0.017 0.492 0.172 0.807 0.207 0.417 0.541 0.746 0.964 0.941 0.25 0.116 0.381 0.141 0.756 0.143 0.586 0.001 0.989-0.17 1.388-0.592 0.404-0.428 0.505-0.685 0.505-1.3 0-0.433-0.019-0.548-0.137-0.8-0.209-0.406-0.532-0.728-0.926-0.93l-0.012-0.006c-0.364-0.172-0.988-0.225-1.325-0.113zM15.12 7.837c-1.42 0.168-2.699 0.665-3.792 1.414l0.029-0.019c-0.646 0.429-1.67 1.447-2.113 2.102-0.843 1.211-1.372 2.698-1.441 4.303l-0.001 0.017c-0.005 0.107-0.008 0.233-0.008 0.359 0 2.621 1.232 4.954 3.148 6.452l0.018 0.014c1.375 1.081 3.131 1.733 5.040 1.733s3.665-0.653 5.058-1.747l-0.018 0.013c1.848-1.445 3.053-3.638 3.157-6.116l0.001-0.017c0.005-0.107 0.008-0.232 0.008-0.357 0-1.74-0.542-3.354-1.467-4.682l0.018 0.027c-0.439-0.649-1.463-1.667-2.113-2.1-0.878-0.603-1.913-1.051-3.028-1.278l-0.054-0.009c-0.643-0.124-1.852-0.177-2.441-0.109zM17.277 10.828c0.976 0.261 1.815 0.75 2.488 1.409l-0.001-0.001c0.663 0.665 1.191 1.6 1.418 2.515 0.159 0.64 0.17 1.77 0.025 2.396-0.601 2.582-2.876 4.308-5.497 4.172-1.366-0.061-2.585-0.645-3.471-1.554l-0.001-0.001c-0.659-0.648-1.147-1.469-1.39-2.39l-0.008-0.036c-0.179-0.673-0.201-1.824-0.048-2.483 0.239-1.033 0.838-2.083 1.571-2.753 0.786-0.711 1.781-1.205 2.883-1.378l0.032-0.004c0.484-0.068 1.485-0.015 1.999 0.109z"></path>
</symbol>
<symbol id="icon-home-icon" viewBox="0 0 29 32">
<path fill="#119bff" style="fill: var(--color5, #119bff)" d="M13.491 0.071c-0.631 0.179-0.381-0.057-7.127 6.685l-6.364 6.358v17.479h11.443v-10.909h6.205v10.909h11.443v-17.529l-6.767-6.23c-3.722-3.425-6.877-6.31-7.012-6.409-0.149-0.108-0.32-0.203-0.501-0.278l-0.017-0.006c-0.355-0.135-0.959-0.167-1.303-0.071z"></path>
</symbol>
<symbol id="icon-fire-icon" viewBox="0 0 28 32">
<path fill="#f11" style="fill: var(--color6, #f11)" d="M9.368 1.348l-0.672 1.348 0.115 0.093c0.41 0.327 0.781 0.698 0.935 0.938 0.426 0.658 0.479 1.455 0.149 2.205-0.358 0.81-0.999 1.498-3.263 3.503-3.087 2.735-4.406 4.269-5.383 6.262-1.288 2.632-1.606 5.715-0.854 8.326 1.003 3.491 3.834 6.169 7.42 7.018 1.050 0.249 1.319 0.263 4.988 0.263h3.384l-0.366-0.73c-0.974-1.945-1.426-3.158-1.672-4.487-0.447-2.411-0.095-4.487 1.202-7.072 0.459-0.918 0.815-1.539 2.058-3.595 0.584-0.968 1.174-1.991 1.308-2.272 0.601-1.259 0.847-2.475 0.754-3.733-0.189-2.557-1.903-5.048-4.931-7.167-1.197-0.836-2.756-1.658-3.866-2.037 0.058 0.009-0.15-0.063-0.359-0.133l-0.268-0.078c-0.003 0-0.309 0.607-0.678 1.348zM20.755 14.041c-2.152 3.715-2.919 5.412-3.384 7.487-0.175 0.72-0.281 1.548-0.291 2.4l-0 0.007c-0.070 2.298 0.378 4.257 1.59 6.963l0.181 0.405h0.57c1.366 0.003 2.559-0.257 3.709-0.81 0.946-0.45 1.751-1.046 2.42-1.769l0.005-0.005c1.223-1.288 1.946-2.808 2.202-4.632 0.168-1.195-0.026-2.738-0.477-3.798-0.723-1.699-2.745-4.042-5.455-6.325-0.196-0.17-0.419-0.353-0.646-0.531l-0.039-0.029c-0.010 0-0.184 0.288-0.387 0.637z"></path>
</symbol>
<symbol id="icon-facebook-icon" viewBox="0 0 17 32">
<path fill="#3a0ca3" style="fill: var(--color4, #3a0ca3)" d="M11.855 0.031c-2.455 0.202-4.324 1.21-5.482 2.954-0.711 1.073-1.121 2.349-1.251 3.895-0.017 0.199-0.031 1.421-0.031 2.844v2.495h-5.091v5.789h5.091v13.993h6.255v-13.993h2.329c1.836 0 2.33-0.007 2.34-0.036 0.007-0.020 0.204-1.28 0.436-2.8s0.431-2.806 0.441-2.858l0.016-0.095h-5.562v-1.98c0-1.215 0.012-2.087 0.031-2.259 0.090-0.801 0.369-1.409 0.864-1.872 0.266-0.251 0.588-0.446 0.945-0.565l0.018-0.005c0.544-0.185 0.614-0.192 2.353-0.205l1.578-0.013v-4.932l-0.56-0.077c-1.060-0.166-2.3-0.272-3.561-0.293l-0.024-0c-0.448-0.007-0.959 0-1.135 0.015z"></path>
</symbol>
<symbol id="icon-dollar-icon" viewBox="0 0 19 32">
<path fill="#00ce3a" style="fill: var(--color7, #00ce3a)" d="M8.895 3.47v2.106l-1.306 0.018c-0.946 0.013-1.377 0.029-1.567 0.064-1.206 0.21-2.252 0.781-3.050 1.596l-0.001 0.001c-0.666 0.685-1.161 1.54-1.416 2.492l-0.009 0.040c-0.097 0.395-0.153 0.848-0.153 1.315 0 0.681 0.119 1.333 0.337 1.939l-0.013-0.040c0.735 1.994 2.457 3.354 4.58 3.617 0.175 0.022 1.382 0.035 3.311 0.035 3.201 0 3.4 0.008 3.89 0.15 1.071 0.31 1.923 1.205 2.219 2.329 0.088 0.333 0.118 1.094 0.061 1.487-0.097 0.688-0.401 1.291-0.846 1.76l0.001-0.001c-0.444 0.47-0.879 0.73-1.575 0.941-0.227 0.068-0.257 0.068-5.293 0.086l-5.064 0.017v2.272l5.892 0.017v3.961l2.257-0.017 0.008-1.971 0.008-1.973 0.69-0.001c1.163 0 1.802-0.078 2.442-0.298 1.978-0.675 3.357-2.296 3.722-4.376 0.085-0.487 0.092-1.451 0.013-1.931-0.391-2.403-2.14-4.193-4.543-4.651-0.221-0.042-0.797-0.053-3.655-0.071l-3.392-0.021-0.326-0.088c-1.423-0.387-2.375-1.561-2.44-3.009-0.003-0.051-0.005-0.111-0.005-0.172 0-1.112 0.568-2.092 1.43-2.665l0.012-0.007c0.438-0.298 0.968-0.491 1.541-0.532l0.010-0.001c0.216-0.019 2.17-0.032 4.833-0.032h4.472v-2.273h-4.804l-0.008-2.102-0.008-2.101-2.257-0.018v2.108z"></path>
</symbol>
<symbol id="icon-bed-icon" viewBox="0 0 44 32">
<path d="M0 15.636v15.636h2.909v-4.351l1.001 0.029c0.55 0.017 8.624 0.080 17.945 0.141 9.321 0.063 17.379 0.131 17.91 0.154l0.963 0.041v3.985h2.913l-0.023-9.29c-0.022-9.261-0.022-9.293-0.179-9.873-0.474-1.757-1.546-3.316-2.921-4.249-0.694-0.457-1.494-0.835-2.346-1.093l-0.065-0.017-0.615-0.164-20.036-0.045v10.986h-2.036v-2.282c0-2.516-0.049-2.967-0.447-4.105-0.806-2.308-2.663-4.125-5.028-4.919-1.001-0.336-1.741-0.401-4.506-0.403h-2.528v-5.818h-2.909v15.636zM8.983 8.964c1.411 0.471 2.458 1.409 3.097 2.774 0.375 0.8 0.426 1.239 0.428 3.626l0.001 2.163h-9.6v-8.81l5.491 0.052 0.583 0.195zM37.273 9.564c1.629 0.342 3.004 1.716 3.345 3.345 0.079 0.378 0.106 1.040 0.108 2.564l0.001 2.054h-20.364v-8.073l8.201 0.001c6.929 0.001 8.278 0.017 8.708 0.108zM40.727 22.401v1.965l-1.181-0.038c-0.65-0.020-8.89-0.089-18.31-0.15-9.42-0.063-17.398-0.131-17.727-0.153l-0.601-0.039v-3.551h37.818v1.965z"></path>
</symbol>
<symbol id="icon-bathroom-icon" viewBox="0 0 32 32">
<path d="M12.933 0.059c-0.777 0.139-1.47 0.409-2.088 0.791l0.026-0.015c-0.141 0.091-0.152 0.088-0.727-0.185-0.927-0.439-1.248-0.508-2.384-0.512-0.832-0.003-1.020 0.013-1.413 0.117-0.964 0.277-1.795 0.759-2.477 1.398l0.003-0.003c-0.8 0.767-1.26 1.551-1.595 2.724-0.115 0.397-0.115 0.44-0.132 6.867l-0.016 6.467h-2.131v2.133h2.133v2.261l1.069 3.212c0.764 2.293 1.113 3.272 1.223 3.423 0.345 0.477 0.731 0.647 1.56 0.689 0.549 0.028 0.572 0.035 0.544 0.143-0.015 0.061-0.179 0.628-0.364 1.259l-0.336 1.147 1.093 0.015c0.601 0.008 1.103 0.005 1.113-0.007 0.012-0.012 0.185-0.583 0.385-1.268l0.364-1.247h13.905l0.752 2.507 1.105 0.015c0.608 0.008 1.105-0.003 1.105-0.021 0-0.036-0.681-2.327-0.728-2.449-0.019-0.048 0.191-0.071 0.819-0.091 0.907-0.028 1.163-0.085 1.496-0.34 0.388-0.296 0.448-0.44 1.557-3.773l1.069-3.212v-2.261h2.133v-2.133h-27.736l0.029-12.667 0.151-0.427c0.372-1.052 1.104-1.801 2.156-2.205 0.324-0.124 0.433-0.139 1.107-0.14 0.647-0.001 0.795 0.016 1.107 0.123 0.199 0.069 0.36 0.136 0.36 0.151s-0.083 0.199-0.184 0.409c-0.793 1.656-0.687 3.615 0.283 5.128 0.188 0.295 0.792 1.007 1.152 1.36l0.297 0.292-1.335 1.337 1.493 1.491 10.133-10.132-1.493-1.492-1.325 1.323-0.524-0.497c-0.641-0.609-0.996-0.875-1.543-1.159-0.713-0.374-1.557-0.594-2.453-0.594-0.262 0-0.519 0.019-0.77 0.055l0.029-0.003zM14.373 2.213c0.632 0.132 1.099 0.408 1.733 1.024l0.56 0.544-4.427 4.437-0.533-0.549c-0.811-0.835-1.093-1.456-1.093-2.407 0-0.519 0.1-0.988 0.292-1.367 0.661-1.304 2.051-1.979 3.468-1.683zM27.729 20.84l-0.004 1-1.832 5.44h-19.787l-1.832-5.44-0.008-2h23.467l-0.004 1z"></path>
</symbol>
</defs>
</svg>
