<svg aria-hidden="true" style="position: absolute; width: 0; height: 0; overflow: hidden;" version="1.1" xmlns="http://www.w3.org/2000/svg" xmlns:xlink="http://www.w3.org/1999/xlink">
<defs>
<symbol id="pin-icon" viewBox="0 0 14 18" fill="currentColor">
<path d="m 7,0.40039063 c -3.6595882,0 -6.59960937,3.16138627 -6.59960937,6.99999997 0,2.1067989 1.59655357,4.4974734 3.12304687,6.4902344 1.5264933,1.992761 3.0507812,3.53125 3.0507812,3.53125 L 7,17.853516 7.4257812,17.421875 c 0,0 1.524288,-1.538489 3.0507818,-3.53125 1.526493,-1.992761 3.123046,-4.3834355 3.123046,-6.4902344 C 13.599609,3.5617757 10.659579,0.40039063 7,0.40039063 Z M 7,1.5996094 c 2.9678142,0 5.400391,2.5701632 5.400391,5.8007812 0,1.4277977 -1.40345,3.8361804 -2.8769535,5.7597654 C 8.2628342,14.805811 7.3386462,15.733682 7,16.083984 6.6613538,15.733682 5.7371658,14.805811 4.4765625,13.160156 3.0030588,11.236571 1.5996094,8.8281883 1.5996094,7.4003906 1.5996094,4.1697715 4.0321748,1.5996094 7,1.5996094 Z"></path>
<path d="M 7,6 C 6.2399066,6 5.6503906,6.6545711 5.6503906,7.4003906 c 0,0.7458226 0.5895256,1.4003907 1.3496094,1.4003907 0.7600838,0 1.3496094,-0.6545681 1.3496094,-1.4003907 C 8.3496094,6.6545711 7.7600934,6 7,6 Z m 0,1.1992187 c 0.068346,0 0.1503906,0.063332 0.1503906,0.2011719 0,0.1378565 -0.082035,0.1992188 -0.1503906,0.1992188 -0.068355,0 -0.1503906,-0.061362 -0.1503906,-0.1992188 C 6.8496094,7.262551 6.9316543,7.1992187 7,7.1992187 Z"></path>
</symbol>

<symbol id="phone-icon" viewBox="0 0 16 16" fill="currentColor">
<path d="M15.5425 1.66261L15.5161 1.64609L12.1749 0L8.56855 4.8084L10.2277 7.02078C10.1781 7.85512 9.82426 8.6423 9.23324 9.23331C8.64223 9.82432 7.85504 10.1781 7.0207 10.2278L4.80836 8.56859L0 12.1748L1.6324 15.4881L1.64613 15.5161L1.66269 15.5425C1.7498 15.6829 1.87139 15.7986 2.01588 15.8787C2.16036 15.9587 2.32295 16.0005 2.48814 16H3.3503C5.01148 16 6.6564 15.6728 8.19114 15.0371C9.72587 14.4014 11.1204 13.4696 12.295 12.295C13.4696 11.1203 14.4014 9.72584 15.0371 8.1911C15.6728 6.65636 16 5.01144 16 3.35026V2.48807C16.0005 2.32287 15.9588 2.16029 15.8787 2.0158C15.7986 1.87131 15.6829 1.74972 15.5425 1.66261ZM14.7653 3.35026C14.7653 9.64451 9.64451 14.7653 3.3503 14.7653H2.65267L1.56047 12.548L4.8086 10.1119L6.61698 11.4682H6.82276C8.05445 11.4668 9.23529 10.9769 10.1062 10.106C10.9772 9.23502 11.4671 8.05418 11.4684 6.82249V6.61671L10.1122 4.80836L12.548 1.56043L14.7653 2.65283V3.35026Z"></path>
</symbol>

<symbol id="mail-icon" viewBox="0 0 18 13" fill="currentColor">
<path d="M 13.103516,3.609375 A 0.60000002,0.60000002 0 0 0 12.65625,3.7089844 L 9,6.2675781 5.34375,3.7089844 A 0.60000002,0.60000002 0 0 0 4.5078125,3.8554688 0.60000002,0.60000002 0 0 0 4.65625,4.6914062 l 4,2.8007813 a 0.60006002,0.60006002 0 0 0 0.6875,0 l 4,-2.8007813 A 0.60000002,0.60000002 0 0 0 13.492188,3.8554688 0.60000002,0.60000002 0 0 0 13.103516,3.609375 Z"></path>
<path d="m 2.5996094,0.40039063 c -1.2079193,0 -2.19921877,0.99129947 -2.19921877,2.19921877 v 7.9999996 c 0,1.207945 0.99131757,2.201172 2.19921877,2.201172 H 15.400391 c 1.207926,0 2.199218,-0.993245 2.199218,-2.201172 V 2.5996094 c 0,-1.2079012 -0.991274,-2.19921877 -2.199218,-2.19921877 z m 0,1.19921877 H 15.400391 c 0.559453,0 1,0.4405829 1,1 v 7.9999996 c 0,0.559472 -0.440529,1 -1,1 H 2.5996094 c -0.5594171,0 -1,-0.440546 -1,-1 V 2.5996094 c 0,-0.559399 0.440601,-1 1,-1 z"></path>
</symbol>

<symbol id="rezilla-icon" viewBox="0 0 32 32" fill="currentColor">
<path d="M15.6 0.1c-0.117 0.055-3.621 2.825-7.787 6.159-8.095 6.476-7.813 6.235-7.813 6.712 0 0.257 0.123 0.557 0.308 0.751 0.237 0.248 0.552 0.305 1.675 0.305h1.004l0.001 8.573c0.001 8.221 0.005 8.583 0.1 8.787 0.106 0.244 0.301 0.433 0.544 0.528l0.007 0.002c0.176 0.073 1.3 0.083 10.28 0.083h10.081v-1.973h-4v-4.573c0-2.837-0.020-4.645-0.053-4.763-0.063-0.227-0.327-0.495-0.599-0.608-0.297-0.124-6.399-0.124-6.696 0-0.272 0.113-0.536 0.381-0.599 0.608-0.033 0.117-0.053 1.925-0.053 4.763v4.573h-6.987v-16l16.987-0.027 0.029-2-18.143-0.027 12.113-9.691 12.113 9.691-0.212 0.036c-0.407 0.071-0.681 0.283-0.832 0.643-0.072 0.171-0.083 0.617-0.083 3.267v3.068h2.027v-4.96l0.973-0.001c0.536-0.001 1.081-0.027 1.212-0.056 0.615-0.141 0.952-0.759 0.719-1.316-0.047-0.115-0.106-0.213-0.175-0.303l0.002 0.003c-0.213-0.244-15.259-12.235-15.421-12.291-0.095-0.037-0.204-0.058-0.319-0.058-0.147 0-0.286 0.035-0.409 0.098l0.005-0.002zM17.973 26.027v4h-3.947v-8h3.947v4z"></path>
</symbol>

<symbol id="user-circle-icon" viewBox="0 0 32 32" fill="currentColor">
<path d="M14.96 0.352c-3.272 0.262-6.234 1.413-8.731 3.39-0.908 0.765-1.722 1.578-2.462 2.456l-0.025 0.030c-1.786 2.253-2.886 4.858-3.296 7.798-0.128 0.926-0.128 3.019 0 3.946 0.41 2.941 1.51 5.546 3.296 7.798 0.558 0.704 1.782 1.928 2.486 2.486 2.253 1.786 4.858 2.886 7.798 3.296 0.926 0.128 3.019 0.128 3.946 0 2.938-0.41 5.547-1.512 7.8-3.298 0.908-0.763 1.721-1.575 2.458-2.453l0.025-0.030c1.786-2.253 2.888-4.862 3.298-7.8 0.128-0.926 0.128-3.019 0-3.946-0.41-2.938-1.512-5.547-3.298-7.8-0.764-0.908-1.577-1.721-2.455-2.46l-0.030-0.025c-2.146-1.713-4.794-2.888-7.69-3.279l-0.081-0.009c-0.618-0.083-2.493-0.146-3.040-0.102zM17.92 3.011c0.971 0.164 1.824 0.386 2.646 0.674l-0.111-0.034c0.746 0.274 2.038 0.915 2.638 1.31 1.564 1.036 2.867 2.333 3.878 3.842l0.031 0.050c0.426 0.646 1.064 1.92 1.347 2.691 0.25 0.682 0.518 1.749 0.643 2.563 0.139 0.901 0.139 2.885 0 3.786-0.218 1.454-0.648 2.765-1.262 3.967l0.034-0.073c-0.635 1.304-1.437 2.42-2.398 3.377l-0 0c-1.008 1.048-2.191 1.918-3.504 2.564l-0.073 0.033c-1.129 0.581-2.44 1.012-3.823 1.222l-0.071 0.009c-0.901 0.139-2.885 0.139-3.786 0-2.344-0.367-4.424-1.291-6.166-2.633l0.031 0.023c-0.549-0.414-1.941-1.806-2.355-2.355-0.778-1.028-1.44-2.207-1.932-3.471l-0.034-0.1c-0.261-0.723-0.485-1.586-0.631-2.475l-0.012-0.088c-0.139-0.901-0.139-2.885 0-3.786 0.366-2.344 1.291-4.424 2.633-6.166l-0.023 0.031c0.384-0.509 1.723-1.862 2.253-2.278 1.058-0.81 2.27-1.499 3.573-2.008l0.101-0.035c0.946-0.347 2.022-0.581 3.389-0.739 0.427-0.050 2.456 0.019 2.987 0.099zM15.173 6.157c-0.858 0.134-1.547 0.4-2.266 0.874-1.71 1.126-2.694 3.211-2.461 5.213 0.141 1.218 0.549 2.162 1.349 3.122 0.147 0.178 0.261 0.33 0.25 0.336-0.010 0.008-0.21 0.13-0.443 0.27-1.96 1.174-3.44 3.259-3.891 5.475-0.11 0.55-0.21 1.67-0.168 1.926 0.074 0.432 0.346 0.788 0.717 0.976l0.008 0.003c0.253 0.133 0.813 0.133 1.066 0 0.52-0.272 0.694-0.595 0.75-1.392 0.074-1.034 0.262-1.717 0.717-2.573 0.301-0.568 0.6-0.952 1.154-1.482 0.399-0.4 0.864-0.734 1.376-0.985l0.030-0.013c0.771-0.393 1.682-0.623 2.647-0.623 1.23 0 2.373 0.374 3.321 1.016l-0.021-0.013c0.368 0.242 1.11 0.949 1.422 1.354 0.131 0.17 0.342 0.506 0.47 0.747 0.454 0.856 0.643 1.539 0.717 2.573 0.045 0.64 0.138 0.899 0.411 1.154 0.206 0.209 0.492 0.338 0.808 0.338 0.022 0 0.045-0.001 0.067-0.002l-0.003 0c0.65 0 1.155-0.432 1.258-1.077 0.042-0.259-0.058-1.382-0.17-1.926-0.516-2.332-1.931-4.264-3.853-5.454l-0.037-0.021c-0.251-0.147-0.395-0.236-0.539-0.327l0.096 0.057c0.075-0.127 0.158-0.237 0.251-0.337l-0.001 0.001c0.8-0.96 1.208-1.904 1.349-3.122 0.15-1.286-0.226-2.712-1.005-3.811-1.032-1.421-2.689-2.335-4.559-2.335-0.288 0-0.572 0.022-0.848 0.064l0.031-0.004zM16.982 8.797c0.875 0.307 1.606 1.040 1.906 1.909 0.179 0.518 0.179 1.43 0 1.949-0.329 0.896-1.024 1.59-1.9 1.91l-0.022 0.007c-0.509 0.176-1.427 0.174-1.941-0.003-0.896-0.329-1.59-1.024-1.91-1.9l-0.007-0.022c-0.174-0.506-0.174-1.427 0-1.933 0.366-1.016 1.212-1.778 2.257-2.018l0.021-0.004c0.357-0.078 1.242-0.019 1.595 0.106z"></path>
</symbol>

<symbol id="home-icon" viewBox="0 0 42 44" fill="currentColor">
<path d="M 40.0773,18.1142 22.3463,1.80166 C 21.7698,1.27135 21.0108,0.984352 20.2277,1.00066 19.4446,1.01697 18.6981,1.33531 18.1443,1.88916 L 1.83688,18.1967 1,19.0334 v 24.0407 h 15.7143 v -15 h 8.5714 v 15 H 41 V 18.9632 Z M 20.2891,3.85719 c 0.0252,0 0.0096,0.00545 -0.0012,0.01608 -0.0111,-0.01063 -0.024,-0.01608 0.0012,-0.01608 z M 38.1429,40.2169 h -10 V 28.0741 c 0,-0.7578 -0.3011,-1.4845 -0.8369,-2.0203 -0.5358,-0.5359 -1.2625,-0.8369 -2.0203,-0.8369 h -8.5714 c -0.7578,0 -1.4845,0.301 -2.0203,0.8369 -0.5358,0.5358 -0.8369,1.2625 -0.8369,2.0203 V 40.2169 H 3.85714 v -20 L 20.2891,3.90943 20.2913,3.9063 38.1429,20.2169 Z"></path>
<path d="M 20.220703,0.70117187 C 19.360323,0.71909143 18.54011,1.0692102 17.931641,1.6777344 L 1.625,17.984375 0.69921875,18.908203 V 43.375 H 17.013672 v -15 h 7.972656 v 15 H 41.300781 V 18.832031 L 40.28125,17.892578 22.548828,1.5800781 C 21.915461,0.99745762 21.081087,0.68325445 20.220703,0.70117187 Z m 0.01367,0.59960933 c 0.705815,-0.014699 1.388571,0.2427047 1.908203,0.7207032 L 39.875,18.335937 40.699219,19.095703 V 42.773437 H 25.585937 v -15 h -9.171875 v 15 H 1.3007812 V 19.158203 l 0.7480469,-0.75 L 18.355469,2.1015625 c 0.499129,-0.4991747 1.173088,-0.7860808 1.878906,-0.8007813 z m 0.0078,2.1542969 -0.0957,0.1347657 c -0.01627,0.00759 -0.03305,0.01553 -0.0332,0.015625 -3.3e-4,2.112e-4 -0.101423,0.1091219 -0.101562,0.109375 -4.6e-5,8.34e-5 -0.0065,0.03275 -0.01172,0.058594 L 3.5566406,20.091797 V 40.517578 H 14.15625 V 28.074219 c 0,-0.678333 0.270368,-1.328962 0.75,-1.808594 0.479617,-0.479706 1.130235,-0.748047 1.808594,-0.748047 h 8.570312 c 0.678359,0 1.328977,0.268341 1.808594,0.748047 0.479632,0.479632 0.75,1.130261 0.75,1.808594 V 40.517578 H 38.443359 V 40.216797 20.083984 L 20.585937,3.7695313 c -0.01053,-0.023477 -0.03509,-0.079983 -0.03516,-0.080078 -7.9e-5,-1.161e-4 -0.05846,-0.062394 -0.05859,-0.0625 -2.59e-4,-2.112e-4 -0.09132,-0.050612 -0.0918,-0.050781 -3.62e-4,-1.281e-4 -0.02149,-0.00583 -0.03711,-0.00977 z M 20.462891,3.65625 h 0.03125 c 0.0037,0.00381 0.0065,0.00737 0.01172,0.013672 0.0085,0.01016 0.03339,0.049165 0.0332,0.048828 -1.6e-5,-3.08e-5 0.0034,0.00809 0.0039,0.00977 z m -0.38086,0.00391 h 0.01563 l -0.03906,0.054687 -0.0332,0.033203 c 0.0058,-0.010207 0.04126,-0.072576 0.04102,-0.072266 -1.95e-4,2.502e-4 0.0092,-0.00878 0.01563,-0.015625 z M 20.300781,4.3203125 37.84375,20.349609 V 39.916016 H 28.443359 V 28.074219 c 0,-0.837266 -0.333814,-1.640455 -0.925781,-2.232422 -0.591982,-0.592093 -1.395182,-0.925781 -2.232422,-0.925781 h -8.570312 c -0.83724,0 -1.64044,0.333688 -2.232422,0.925781 -0.591967,0.591967 -0.925781,1.395156 -0.925781,2.232422 V 39.916016 H 4.15625 V 20.341797 Z"></path>
</symbol>

<symbol id="right-slider-icon" viewBox="0 0  8 14" fill="currentColor">
<path d="m 0.29296875,0.29296875 a 1,1 0 0 0 0,1.41406245 L 4.8789062,6.2929687 c 0.3989015,0.3989015 0.3988941,1.0151736 0,1.4140625 L 0.29296875,12.292969 a 1,1 0 0 0 0,1.414062 1,1 0 0 0 1.41406245,0 L 6.2929687,9.1210938 c 1.1632044,-1.1631895 1.1631971,-3.0789905 0,-4.2421876 L 1.7070312,0.29296875 a 1,1 0 0 0 -1.41406245,0 z"></path>
</symbol>

<symbol id="left-slider-icon" viewBox="0 0  8 14" fill="currentColor">
<path d="M 7,0 A 1,1 0 0 0 6.2929687,0.29296875 L 1.7070312,4.8789062 c -1.16318885,1.163189 -1.16319999,3.0789875 0,4.2421876 l 4.5859375,4.5859372 a 1,1 0 0 0 1.4140625,0 1,1 0 0 0 0,-1.414062 L 3.1210938,7.7070312 c -0.3988984,-0.3988983 -0.3988896,-1.0151729 0,-1.4140625 L 7.7070312,1.7070312 a 1,1 0 0 0 0,-1.41406245 A 1,1 0 0 0 7,0 Z"></path>
</symbol>

<symbol id="search-normal-icon" viewBox="0 0 20 20" fill="currentColor">
<path d="M9.53582 19.0716C4.27949 19.0716 0 14.7921 0 9.53582C0 4.27949 4.27949 0 9.53582 0C14.7921 0 19.0716 4.27949 19.0716 9.53582C19.0716 14.7921 14.7921 19.0716 9.53582 19.0716ZM9.53582 1.39549C5.04235 1.39549 1.39549 5.05166 1.39549 9.53582C1.39549 14.02 5.04235 17.6761 9.53582 17.6761C14.0293 17.6761 17.6761 14.02 17.6761 9.53582C17.6761 5.05166 14.0293 1.39549 9.53582 1.39549Z"></path>
<path d="M19.3046 20.0019C19.1278 20.0019 18.951 19.9367 18.8115 19.7972L16.9508 17.9365C16.6811 17.6667 16.6811 17.2202 16.9508 16.9504C17.2206 16.6806 17.6672 16.6806 17.937 16.9504L19.7976 18.811C20.0674 19.0808 20.0674 19.5274 19.7976 19.7972C19.6581 19.9367 19.4813 20.0019 19.3046 20.0019Z"></path>
</symbol>

<symbol id="smart-home-icon" viewBox="0 0 40 40" fill="currentColor">
<path d="M30.531 38.8827H19.1277C18.3736 38.8827 17.7483 38.2573 17.7483 37.5032C17.7483 36.7491 18.3736 36.1238 19.1277 36.1238H30.531C32.499 36.1238 34.4301 34.4867 34.7612 32.5371L37.2074 17.897C37.4281 16.5727 36.6926 14.6781 35.6626 13.8505L22.9165 3.66125C21.4451 2.48414 18.999 2.48412 17.546 3.64284L4.8001 13.8505C3.75174 14.6965 3.03444 16.5727 3.25514 17.897L3.77013 21.0051C3.89888 21.7592 3.38391 22.4765 2.62982 22.5869C1.87574 22.734 1.17685 22.2006 1.0481 21.4465L0.533113 18.3568C0.146873 16.0761 1.25043 13.1517 3.07128 11.6987L15.8172 1.49086C18.2817 -0.495513 22.1624 -0.477102 24.6454 1.50927L37.3913 11.6987C39.1938 13.1517 40.2973 16.0761 39.9295 18.3568L37.4833 32.9969C36.9315 36.2524 33.8232 38.8827 30.531 38.8827Z"></path>
<path d="M7.35738 39.2322C6.60329 39.2322 5.99634 38.6253 5.97795 37.8896C5.92277 35.4066 4.28587 33.7697 1.80291 33.7145C1.04882 33.6961 0.441854 33.0708 0.460246 32.2983C0.478638 31.5442 1.08559 30.9557 1.83967 30.9557H1.87644C5.8308 31.0477 8.66324 33.8617 8.7368 37.816C8.7552 38.5701 8.14823 39.2139 7.39415 39.2322C7.37575 39.2322 7.37577 39.2322 7.35738 39.2322Z"></path>
<path d="M12.8751 39.2323C12.121 39.2323 11.4956 38.6253 11.4956 37.8712C11.4772 36.6573 11.2749 35.4986 10.9071 34.4135C9.96906 31.7282 7.9643 29.7416 5.27901 28.7852C4.19386 28.399 3.03515 28.1968 1.82125 28.1968C1.06716 28.1968 0.441842 27.5715 0.460235 26.799C0.460235 26.0449 1.08557 25.438 1.83966 25.438H1.85805C3.38462 25.4564 4.8376 25.7139 6.19863 26.1921C9.67479 27.4244 12.2681 30.0177 13.5004 33.4938C13.9786 34.8549 14.2361 36.3263 14.2545 37.8344C14.2545 38.6069 13.6476 39.2323 12.8751 39.2323Z"></path>
<path d="M1.83924 39.6921C0.809264 39.6921 0 38.8645 0 37.8529C0 36.8413 0.827656 36.0137 1.83924 36.0137C2.85082 36.0137 3.67847 36.8413 3.67847 37.8529C3.67847 38.8645 2.86921 39.6921 1.83924 39.6921Z"></path>
</symbol>

<symbol id="user-octagon-icon" viewBox="0 0 44 48" fill="currentColor">
<path d="M 21.990234,0.51171875 C 20.5349,0.51178037 19.082855,0.88640332 17.783203,1.6367187 L 4.7070312,9.1875 a 1.50015,1.50015 0 0 0 -0.00977,0.00586 C 2.1076662,10.715062 0.5,13.494781 0.5,16.496094 v 15.05664 c 0,3.018575 1.6071761,5.809603 4.2070312,7.310547 l 13.0761718,7.550781 a 1.50015,1.50015 0 0 0 0.0059,0.002 c 2.61537,1.494496 5.828433,1.498665 8.427735,-0.002 l 13.076172,-7.550781 a 1.50015,1.50015 0 0 0 0.0098,-0.0059 C 41.892307,37.335742 43.5,34.554063 43.5,31.552734 v -15.05664 c 0,-3.01867 -1.614295,-5.784934 -4.197266,-7.3027346 A 1.50015,1.50015 0 0 0 39.292969,9.1875 L 26.216797,1.6367187 a 1.50015,1.50015 0 0 0 -0.0059,-0.00391 C 24.903252,0.88555779 23.445569,0.51165713 21.990234,0.51171875 Z m 0.002,2.99804685 c 0.938713,6.16e-5 1.880757,0.2410085 2.730469,0.7265625 L 37.783203,11.779297 C 39.471029,12.771094 40.5,14.539368 40.5,16.496094 v 15.05664 c 0,1.929867 -1.035574,3.72888 -2.716797,4.716797 l -13.066406,7.544922 c -1.671493,0.96498 -3.740027,0.969148 -5.439453,-0.002 L 6.2070312,36.263672 C 4.5361106,35.299019 3.5,33.509355 3.5,31.552734 v -15.05664 c 0,-1.929883 1.0356205,-3.728903 2.7167969,-4.716797 L 19.283203,4.234375 c 0.835746,-0.4824933 1.770272,-0.724671 2.708984,-0.7246094 z"></path>
<path d="m 22.011719,10.064453 c -3.643443,0 -6.63086,2.985428 -6.63086,6.628906 0,3.64355 2.987346,6.63086 6.63086,6.63086 3.643656,0 6.628906,-2.98738 6.628906,-6.63086 0,-3.643407 -2.98532,-6.628906 -6.628906,-6.628906 z m 0,3 c 2.022408,0 3.628906,1.60672 3.628906,3.628906 0,2.022316 -1.606568,3.63086 -3.628906,3.63086 -2.022081,0 -3.63086,-1.608615 -3.63086,-3.63086 0,-2.022116 1.608708,-3.628906 3.63086,-3.628906 z"></path>
<path d="m 22.011719,25.607422 c -5.525739,0 -10.306641,3.718738 -10.306641,8.675781 a 1.5,1.5 0 0 0 1.5,1.5 1.5,1.5 0 0 0 1.5,-1.5 c 0,-2.968149 3.102189,-5.675781 7.306641,-5.675781 4.204565,0 7.304687,2.707632 7.304687,5.675781 a 1.5,1.5 0 0 0 1.5,1.5 1.5,1.5 0 0 0 1.5,-1.5 c 0,-4.957043 -4.778862,-8.675781 -10.304687,-8.675781 z"></path>
</symbol>

<symbol id="bed-icon" viewBox="0 0 30 22" fill="currentColor">
<path d="M25 4.5H12V12.0387H10.6154V9.47619C10.6138 8.02433 10.0363 6.63239 9.00971 5.60575C7.9831 4.57912 6.59117 4.00164 5.13931 4H2V0H0V21.5H2V18.5161L28 18.7241V21.5H30V9.5C29.9985 8.17438 29.4712 6.90348 28.5339 5.96613C27.5965 5.02877 26.3256 4.5015 25 4.5ZM2 6H5.13931C6.0609 6.00104 6.94445 6.3676 7.59611 7.01927C8.24777 7.67093 8.61433 8.55447 8.61537 9.47606V12.0386H2V6ZM28 16.724L2 16.516V14.0387H28V16.724ZM28 12.0387H14V6.5H25C25.7954 6.50091 26.5579 6.81727 27.1203 7.37968C27.6827 7.9421 27.9991 8.70463 28 9.5V12.0387Z"></path>
</symbol>

<symbol id="bathroom-icon" viewBox="0 0 24 24" fill="currentColor">
<path d="M22.4 13.2596H3.2V4.25964C3.19907 3.9207 3.26538 3.58495 3.39509 3.27182C3.5248 2.95868 3.71533 2.67439 3.95565 2.43538L3.97565 2.41539C4.35228 2.03931 4.83584 1.78868 5.36026 1.69774C5.88468 1.6068 6.42438 1.67998 6.90565 1.90728C6.45114 2.66298 6.26222 3.5489 6.36892 4.42427C6.47562 5.29965 6.87181 6.11425 7.49455 6.73864L8.0421 7.28619L7.03425 8.29409L8.16555 9.42539L9.1734 8.41754L14.7579 2.83318L15.7657 1.82533L14.6344 0.693985L13.6264 1.70184L13.0789 1.15429C12.4233 0.50055 11.5592 0.0975642 10.637 0.0155515C9.71481 -0.0664612 8.79309 0.177699 8.03245 0.705485C7.23036 0.198942 6.27983 -0.0197366 5.33702 0.0853734C4.39422 0.190483 3.51519 0.613131 2.84435 1.28389L2.82435 1.30388C2.43497 1.69113 2.12627 2.15177 1.91611 2.65912C1.70595 3.16648 1.59851 3.71048 1.6 4.25964V13.2596H0V14.8596H1.6V16.3946C1.59997 16.5236 1.62077 16.6517 1.6616 16.7741L3.15 21.2391C3.22943 21.4781 3.38216 21.6861 3.5865 21.8334C3.79084 21.9807 4.0364 22.0598 4.2883 22.0596H4.9333L4.35 24.0596H6.01665L6.6 22.0596H17.005L17.605 24.0596H19.275L18.675 22.0596H19.7115C19.9634 22.0599 20.209 21.9807 20.4134 21.8334C20.6178 21.6861 20.7706 21.4782 20.85 21.2391L22.3383 16.7741C22.3791 16.6517 22.4 16.5236 22.4 16.3946V14.8596H24V13.2596H22.4ZM8.626 2.28563C9.0668 1.8458 9.66407 1.59878 10.2868 1.59878C10.9095 1.59878 11.5068 1.8458 11.9476 2.28563L12.495 2.83318L9.17355 6.15463L8.626 5.60718C8.18619 5.16638 7.93918 4.56911 7.93918 3.94641C7.93918 3.32371 8.18619 2.72644 8.626 2.28563ZM20.8 16.3296L19.4234 20.4596H4.5766L3.2 16.3296V14.8596H20.8V16.3296Z"></path>
</symbol>

<symbol id="fire-icon" viewBox="0 0 20 23" fill="currentColor">
<path d="M12.4076 11.2528C12.6672 10.8265 12.9355 10.3857 13.2006 9.93118C14.0877 8.41044 14.2505 6.87814 13.6846 5.37676C12.5427 2.34747 8.72575 0.501751 7.84209 0.207261L7.22073 0L6.25093 1.93998L6.71893 2.32231C6.72417 2.32651 7.244 2.78073 7.27865 3.4693C7.30824 4.0571 6.986 4.69229 6.32112 5.35736C5.8594 5.81904 5.35264 6.26547 4.8161 6.73805C2.55865 8.72608 0 10.98 0 15.2439C0 15.3024 0.000550676 15.3607 0.00165204 15.4185C0.0180119 16.3595 0.2201 17.2879 0.596308 18.1505C0.972516 19.0131 1.51543 19.7928 2.19387 20.445C3.55621 21.7701 5.38285 22.5097 7.28332 22.5056H11.6306L11.0939 21.4166C8.91356 16.9914 10.4555 14.459 12.4076 11.2528Z"></path>
<path d="M19.8229 15.1955C19.8103 15.1456 19.7972 15.0955 19.7835 15.0451C19.2385 13.047 16.2218 10.4778 15.8797 10.1915L15.1925 9.61646L14.742 10.3909C13.7152 12.1563 12.834 13.7664 12.4499 15.5931C12.0119 17.6763 12.3067 19.7935 13.3515 22.0658L13.5535 22.5056H14.067C14.9713 22.5082 15.8642 22.3032 16.6769 21.9063C17.4895 21.5094 18.2001 20.9312 18.7541 20.2163C19.3046 19.5171 19.6873 18.7007 19.8726 17.8302C20.0579 16.9598 20.0409 16.0583 19.8229 15.1955Z"></path>
</symbol>

<symbol id="search-normal-icon" viewBox="0 0 20 20" fill="currentColor">
<path d="M9.53582 19.0716C4.27949 19.0716 0 14.7921 0 9.53582C0 4.27949 4.27949 0 9.53582 0C14.7921 0 19.0716 4.27949 19.0716 9.53582C19.0716 14.7921 14.7921 19.0716 9.53582 19.0716ZM9.53582 1.39549C5.04235 1.39549 1.39549 5.05166 1.39549 9.53582C1.39549 14.02 5.04235 17.6761 9.53582 17.6761C14.0293 17.6761 17.6761 14.02 17.6761 9.53582C17.6761 5.05166 14.0293 1.39549 9.53582 1.39549Z"></path>
<path d="M19.3046 20.0019C19.1278 20.0019 18.951 19.9367 18.8115 19.7972L16.9508 17.9365C16.6811 17.6667 16.6811 17.2202 16.9508 16.9504C17.2206 16.6806 17.6672 16.6806 17.937 16.9504L19.7976 18.811C20.0674 19.0808 20.0674 19.5274 19.7976 19.7972C19.6581 19.9367 19.4813 20.0019 19.3046 20.0019Z"></path>
</symbol>

<symbol id="search-icon" viewBox="0 0 32 32" fill="currentColor">
<path d="M10.631 1.072c-2.387 0.278-4.678 1.399-6.419 3.14-1.18 1.171-2.092 2.61-2.637 4.218l-0.022 0.076c-0.786 2.366-0.717 5.102 0.187 7.384 2.145 5.414 8.007 8.221 13.522 6.475 0.98-0.31 1.784-0.702 2.756-1.342 0.249-0.164 0.462-0.271 0.488-0.245 0.024 0.026 0.419 0.959 0.878 2.074l0.834 2.027 2.625 2.629c1.851 1.854 2.74 2.707 3.014 2.892 1.027 0.692 2.351 0.743 3.452 0.132 1.042-0.578 1.676-1.671 1.678-2.891 0.001-0.581-0.074-0.916-0.321-1.432-0.277-0.581-0.566-0.897-3.367-3.685l-2.365-2.354-2.053-0.842c-1.129-0.463-2.070-0.856-2.091-0.873s0.12-0.271 0.312-0.564c2.821-4.299 2.223-10.018-1.427-13.675-1.72-1.722-3.926-2.815-6.303-3.124-0.672-0.087-2.088-0.099-2.74-0.023zM13.387 2.693c2.99 0.468 5.6 2.384 6.933 5.088 0.67 1.359 0.972 2.668 0.97 4.192-0.005 2.464-0.91 4.68-2.646 6.472-1.784 1.843-4.12 2.839-6.67 2.843-1.458 0.002-2.652-0.258-4-0.875-2.154-0.984-3.962-2.933-4.788-5.161-0.441-1.189-0.597-2.063-0.595-3.333 0.002-1.238 0.137-2.028 0.537-3.147 1.221-3.41 4.403-5.862 7.992-6.159 0.642-0.053 1.647-0.018 2.267 0.079zM21.992 20.664l2.059 0.851 2.532 2.536c2.182 2.186 2.551 2.578 2.67 2.838 0.34 0.744 0.175 1.53-0.43 2.064-0.358 0.315-0.754 0.45-1.231 0.421-0.695-0.043-0.672-0.025-3.499-2.853l-2.547-2.549-0.821-1.981c-0.894-2.16-0.92-2.226-0.843-2.197 0.029 0.011 0.978 0.403 2.111 0.871z"></path>
</symbol>

<symbol id="arrow-icon" viewBox="0 0 22 16" fill="currentColor">
<path d="M1 7C0.447715 7 0 7.44772 0 8C0 8.55228 0.447715 9 1 9V7ZM21.7071 8.70711C22.0976 8.31658 22.0976 7.68342 21.7071 7.29289L15.3431 0.928932C14.9526 0.538408 14.3195 0.538408 13.9289 0.928932C13.5384 1.31946 13.5384 1.95262 13.9289 2.34315L19.5858 8L13.9289 13.6569C13.5384 14.0474 13.5384 14.6805 13.9289 15.0711C14.3195 15.4616 14.9526 15.4616 15.3431 15.0711L21.7071 8.70711ZM1 9H21V7H1V9Z"></path>
</symbol>

<symbol id="quotes-icon" viewBox="0 0 60 38" fill="currentColor">
<path d="M15.9606 0L0 37.2632H21.7241L30.1478 0H15.9606ZM45.8128 0L29.8522 37.2632H51.5764L60 0H45.8128Z"></path>
</symbol>

<symbol id="icon-linkedin-icon" viewBox="0 0 32 32">
<path fill="#3a0ca3" style="fill: var(--color4, #3a0ca3)" d="M3.075 0.083c-0.508 0.102-0.957 0.297-1.35 0.569l0.012-0.008c-0.745 0.499-1.28 1.203-1.567 2.067-0.116 0.351-0.137 0.508-0.14 1.103-0.003 0.583 0.016 0.756 0.121 1.092 0.423 1.353 1.449 2.351 2.783 2.705 0.527 0.14 1.409 0.125 1.92-0.032 1.132-0.348 1.961-1.060 2.457-2.113 0.229-0.478 0.362-1.038 0.362-1.63 0-0.698-0.186-1.353-0.51-1.917l0.010 0.019c-0.269-0.483-0.951-1.162-1.439-1.434-0.774-0.429-1.855-0.601-2.659-0.42zM23.44 10.143c-1.946 0.116-3.785 1.002-4.96 2.385-0.189 0.223-0.422 0.543-0.519 0.71-0.096 0.169-0.192 0.307-0.214 0.307-0.022 0.001-0.041-0.646-0.041-1.439v-1.44h-6.4v21.334h6.668v-5.863c0-4.905 0.013-5.965 0.080-6.474 0.217-1.658 0.819-2.724 1.839-3.258 0.535-0.281 1.025-0.403 1.761-0.438 2.121-0.099 3.244 0.9 3.604 3.207 0.081 0.522 0.095 1.255 0.113 6.707l0.023 6.119h6.605v-6.467c0-6.419-0.020-7.287-0.191-8.573-0.509-3.83-2.228-5.969-5.318-6.614-0.692-0.145-1.486-0.228-2.3-0.228-0.264 0-0.527 0.009-0.787 0.026l0.035-0.002zM0.534 21.334v10.666h6.612v-21.334h-6.612v10.668z"></path>
</symbol>
<symbol id="icon-instagram-icon" viewBox="0 0 32 32">
<path fill="#3a0ca3" style="fill: var(--color4, #3a0ca3)" d="M11.066 0.036c-2.527 0.060-3.815 0.225-5.111 0.659-2.532 0.847-4.368 2.66-5.235 5.171-0.34 0.986-0.509 1.885-0.625 3.334-0.096 1.212-0.096 12.388 0 13.6 0.186 2.311 0.646 3.865 1.546 5.228 1.191 1.801 2.88 2.959 5.133 3.519 1.578 0.393 2.305 0.428 9.2 0.428 6.060 0 6.947-0.025 8.212-0.22 2.367-0.364 4.256-1.357 5.58-2.934 1.311-1.562 1.919-3.271 2.14-6.020 0.096-1.209 0.096-12.323 0-13.574-0.214-2.764-0.833-4.502-2.164-6.074-0.963-1.137-2.195-1.955-3.706-2.461-1.223-0.409-2.279-0.554-4.621-0.636-1.328-0.047-8.595-0.060-10.348-0.019zM18.16 2.88c5.302 0.077 6.145 0.16 7.494 0.742 0.611 0.263 1.004 0.531 1.562 1.068 0.986 0.947 1.495 2.074 1.711 3.791 0.129 1.018 0.192 3.495 0.193 7.494 0 5.425-0.093 7.407-0.401 8.63-0.422 1.67-1.424 2.966-2.822 3.654-0.879 0.432-1.779 0.644-3.257 0.768-1.133 0.096-12.147 0.096-13.28 0-2.364-0.198-3.53-0.64-4.672-1.772-0.614-0.609-0.941-1.097-1.22-1.82-0.387-1.004-0.513-1.833-0.593-3.914-0.074-1.939-0.032-11.607 0.055-12.506 0.228-2.374 0.934-3.827 2.377-4.895 0.845-0.625 2.113-1.033 3.626-1.164 1.315-0.113 4.697-0.141 9.228-0.076zM24.026 5.617c-0.567 0.189-1.004 0.566-1.231 1.063-0.129 0.281-0.153 0.403-0.154 0.787-0.001 0.407 0.017 0.492 0.172 0.807 0.207 0.417 0.541 0.746 0.964 0.941 0.25 0.116 0.381 0.141 0.756 0.143 0.586 0.001 0.989-0.17 1.388-0.592 0.404-0.428 0.505-0.685 0.505-1.3 0-0.433-0.019-0.548-0.137-0.8-0.209-0.406-0.532-0.728-0.926-0.93l-0.012-0.006c-0.364-0.172-0.988-0.225-1.325-0.113zM15.12 7.837c-1.42 0.168-2.699 0.665-3.792 1.414l0.029-0.019c-0.646 0.429-1.67 1.447-2.113 2.102-0.843 1.211-1.372 2.698-1.441 4.303l-0.001 0.017c-0.005 0.107-0.008 0.233-0.008 0.359 0 2.621 1.232 4.954 3.148 6.452l0.018 0.014c1.375 1.081 3.131 1.733 5.040 1.733s3.665-0.653 5.058-1.747l-0.018 0.013c1.848-1.445 3.053-3.638 3.157-6.116l0.001-0.017c0.005-0.107 0.008-0.232 0.008-0.357 0-1.74-0.542-3.354-1.467-4.682l0.018 0.027c-0.439-0.649-1.463-1.667-2.113-2.1-0.878-0.603-1.913-1.051-3.028-1.278l-0.054-0.009c-0.643-0.124-1.852-0.177-2.441-0.109zM17.277 10.828c0.976 0.261 1.815 0.75 2.488 1.409l-0.001-0.001c0.663 0.665 1.191 1.6 1.418 2.515 0.159 0.64 0.17 1.77 0.025 2.396-0.601 2.582-2.876 4.308-5.497 4.172-1.366-0.061-2.585-0.645-3.471-1.554l-0.001-0.001c-0.659-0.648-1.147-1.469-1.39-2.39l-0.008-0.036c-0.179-0.673-0.201-1.824-0.048-2.483 0.239-1.033 0.838-2.083 1.571-2.753 0.786-0.711 1.781-1.205 2.883-1.378l0.032-0.004c0.484-0.068 1.485-0.015 1.999 0.109z"></path>
</symbol>
<symbol id="icon-facebook-icon" viewBox="0 0 17 32">
<path fill="#3a0ca3" style="fill: var(--color4, #3a0ca3)" d="M11.855 0.031c-2.455 0.202-4.324 1.21-5.482 2.954-0.711 1.073-1.121 2.349-1.251 3.895-0.017 0.199-0.031 1.421-0.031 2.844v2.495h-5.091v5.789h5.091v13.993h6.255v-13.993h2.329c1.836 0 2.33-0.007 2.34-0.036 0.007-0.020 0.204-1.28 0.436-2.8s0.431-2.806 0.441-2.858l0.016-0.095h-5.562v-1.98c0-1.215 0.012-2.087 0.031-2.259 0.090-0.801 0.369-1.409 0.864-1.872 0.266-0.251 0.588-0.446 0.945-0.565l0.018-0.005c0.544-0.185 0.614-0.192 2.353-0.205l1.578-0.013v-4.932l-0.56-0.077c-1.060-0.166-2.3-0.272-3.561-0.293l-0.024-0c-0.448-0.007-0.959 0-1.135 0.015z"></path>
</symbol>
<symbol id="icon-dollar-icon" viewBox="0 0 19 32">
<path fill="#00ce3a" style="fill: var(--color7, #00ce3a)" d="M8.895 3.47v2.106l-1.306 0.018c-0.946 0.013-1.377 0.029-1.567 0.064-1.206 0.21-2.252 0.781-3.050 1.596l-0.001 0.001c-0.666 0.685-1.161 1.54-1.416 2.492l-0.009 0.040c-0.097 0.395-0.153 0.848-0.153 1.315 0 0.681 0.119 1.333 0.337 1.939l-0.013-0.040c0.735 1.994 2.457 3.354 4.58 3.617 0.175 0.022 1.382 0.035 3.311 0.035 3.201 0 3.4 0.008 3.89 0.15 1.071 0.31 1.923 1.205 2.219 2.329 0.088 0.333 0.118 1.094 0.061 1.487-0.097 0.688-0.401 1.291-0.846 1.76l0.001-0.001c-0.444 0.47-0.879 0.73-1.575 0.941-0.227 0.068-0.257 0.068-5.293 0.086l-5.064 0.017v2.272l5.892 0.017v3.961l2.257-0.017 0.008-1.971 0.008-1.973 0.69-0.001c1.163 0 1.802-0.078 2.442-0.298 1.978-0.675 3.357-2.296 3.722-4.376 0.085-0.487 0.092-1.451 0.013-1.931-0.391-2.403-2.14-4.193-4.543-4.651-0.221-0.042-0.797-0.053-3.655-0.071l-3.392-0.021-0.326-0.088c-1.423-0.387-2.375-1.561-2.44-3.009-0.003-0.051-0.005-0.111-0.005-0.172 0-1.112 0.568-2.092 1.43-2.665l0.012-0.007c0.438-0.298 0.968-0.491 1.541-0.532l0.010-0.001c0.216-0.019 2.17-0.032 4.833-0.032h4.472v-2.273h-4.804l-0.008-2.102-0.008-2.101-2.257-0.018v2.108z"></path>
</symbol>
</defs>
</svg>
